<?xml version="1.0" encoding="utf-8"?>
<!-- Generator: Adobe Illustrator 27.5.0, SVG Export Plug-In . SVG Version: 6.00 Build 0)  -->
<svg version="1.1" xmlns="http://www.w3.org/2000/svg" xmlns:xlink="http://www.w3.org/1999/xlink" x="0px" y="0px"
	 viewBox="0 0 3710 3710" style="enable-background:new 0 0 3710 3710;" xml:space="preserve">
<g id="Background">
	<g>
		<g>
			<rect style="fill:#FFFFFF;" width="3710" height="3710"/>
		</g>
	</g>
</g>
<g id="Illustration">
	<g>
		<linearGradient id="SVGID_1_" gradientUnits="userSpaceOnUse" x1="3597.387" y1="4058.3943" x2="1121.7261" y2="983.7788">
			<stop  offset="0" style="stop-color:#DAE3FE"/>
			<stop  offset="1" style="stop-color:#E9EFFD"/>
		</linearGradient>
		<path style="fill:url(#SVGID_1_);" d="M2916.317,2845.877c-56.865,59.865-110.67,98.471-153.18,128.973
			c-499.701,358.541-1090.979,254.028-1216.643,228.505c-185.565-37.689-544.259-110.542-803.589-415.508
			c-392.343-461.388-331.25-1188.292-26.922-1668.131c55.666-87.771,349.712-574.919,947.359-653.042
			c361.69-47.279,783.304,48.077,1088.625,303.876C3392.864,1307.494,3347.239,2392.216,2916.317,2845.877z"/>
		<g>
			
				<linearGradient id="SVGID_00000060714788779308278910000018289127396258389935_" gradientUnits="userSpaceOnUse" x1="-941.4896" y1="2838.9277" x2="-377.6299" y2="1147.3436" gradientTransform="matrix(-1 0 0 1 1155.7772 0)">
				<stop  offset="0" style="stop-color:#09005D"/>
				<stop  offset="1" style="stop-color:#1A0F91"/>
			</linearGradient>
			<path style="fill:url(#SVGID_00000060714788779308278910000018289127396258389935_);" d="M641.335,2900.293
				c0,24.259,19.868,44.107,44.15,44.107h2387.433c24.282,0,44.15-19.848,44.15-44.107l19.865-1371.992
				c0-24.258-28.581-71.618-80.961-68.06l-2333.262-60.373c-30.467-0.788-59.926,10.938-81.5,32.443
				c-21.575,21.505-33.38,50.907-32.66,81.346L641.335,2900.293z"/>
			<path style="fill:#91B3FA;" d="M684.922,2857.978c0,22.972,18.796,41.769,41.768,41.769h2288.652
				c22.973,0,41.769-18.797,41.769-41.769l18.746-1245.506c-2.208-74.952-67.919-101.89-107.753-100.299l-2236.22-59.994
				c-21.404-0.574-42.1,7.673-57.26,22.794c-15.16,15.121-23.498,35.816-22.961,57.221L684.922,2857.978z"/>
			<g>
				<path style="fill:#BDD0FB;" d="M3032.381,2266.275c-0.031,0-0.061,0-0.092,0c-3.382-0.049-6.083-2.829-6.031-6.214
					l1.482-101.009c0.049-3.348,2.78-6.03,6.116-6.03c0.031,0,0.061,0,0.092,0c3.382,0.049,6.082,2.829,6.03,6.214l-1.482,101.008
					C3038.448,2263.593,3035.717,2266.275,3032.381,2266.275z"/>
				<path style="fill:#BDD0FB;" d="M3036.016,2018.752c-0.031,0-0.061,0-0.092,0c-3.382-0.049-6.082-2.835-6.03-6.214l5.679-386.865
					c-0.107-22.979-7.081-41.327-20.734-54.408c-25.484-24.415-65.944-23.169-67.648-23.089l-714.745-19.167
					c-3.379-0.086-6.046-2.902-5.954-6.281c0.088-3.379,2.685-6.256,6.284-5.951l714.32,19.167
					c4.445-0.263,47.523-1.008,76.212,26.48c16.139,15.464,24.384,36.769,24.507,63.31l-5.682,386.987
					C3042.083,2016.07,3039.352,2018.752,3036.016,2018.752z"/>
			</g>
			
				<linearGradient id="SVGID_00000142154311619427602770000005643075382215517605_" gradientUnits="userSpaceOnUse" x1="1908.5814" y1="1828.1571" x2="1867.9042" y2="2716.2776">
				<stop  offset="0" style="stop-color:#09005D"/>
				<stop  offset="1" style="stop-color:#1A0F91"/>
			</linearGradient>
			<path style="fill:url(#SVGID_00000142154311619427602770000005643075382215517605_);" d="M453.31,3058.292H3256.69
				c3.11,0,5.654-2.544,5.654-5.654v-109.24c0-3.109-2.544-5.654-5.654-5.654H453.31c-3.11,0-5.654,2.544-5.654,5.654v109.24
				C447.656,3055.748,450.2,3058.292,453.31,3058.292z"/>
		</g>
		<g>
			<g>
				
					<ellipse transform="matrix(0.7071 -0.7071 0.7071 0.7071 -197.9946 2116.3599)" style="fill:#BDD0FB;" cx="2455.675" cy="1297.181" rx="515.101" ry="515.101"/>
				<g>
					
						<linearGradient id="SVGID_00000034796551271126067930000006924094926138193551_" gradientUnits="userSpaceOnUse" x1="3156.2168" y1="388.8509" x2="2052.3984" y2="1820.0735">
						<stop  offset="0" style="stop-color:#4F52FF"/>
						<stop  offset="1" style="stop-color:#4042E2"/>
					</linearGradient>
					
						<circle style="fill:url(#SVGID_00000034796551271126067930000006924094926138193551_);" cx="2455.675" cy="1297.181" r="439.619"/>
					<path style="fill:#FFFFFF;" d="M2455.675,1758.819c-254.547,0-461.637-207.089-461.637-461.639
						s207.091-461.639,461.637-461.639s461.637,207.088,461.637,461.639S2710.221,1758.819,2455.675,1758.819z M2455.675,857.562
						c-242.406,0-439.617,197.21-439.617,439.619c0,242.409,197.211,439.619,439.617,439.619
						c242.406,0,439.617-197.21,439.617-439.619C2895.291,1054.772,2698.081,857.562,2455.675,857.562z"/>
				</g>
				<g>
					
						<linearGradient id="SVGID_00000165944117036062223620000001087334227794794634_" gradientUnits="userSpaceOnUse" x1="3156.2163" y1="388.8513" x2="2052.3979" y2="1820.0739">
						<stop  offset="0" style="stop-color:#4F52FF"/>
						<stop  offset="1" style="stop-color:#4042E2"/>
					</linearGradient>
					
						<circle style="fill:url(#SVGID_00000165944117036062223620000001087334227794794634_);" cx="2455.675" cy="1297.181" r="268.013"/>
					<path style="fill:#FFFFFF;" d="M2455.675,1587.214c-159.924,0-290.031-130.109-290.031-290.033s130.108-290.03,290.031-290.03
						c159.924,0,290.031,130.106,290.031,290.03S2615.598,1587.214,2455.675,1587.214z M2455.675,1051.188
						c-135.642,0-245.994,110.351-245.994,245.993s110.353,245.996,245.994,245.996c135.642,0,245.994-110.355,245.994-245.996
						S2591.316,1051.188,2455.675,1051.188z"/>
				</g>
				<g>
					
						<linearGradient id="SVGID_00000048461043932379006210000017817336532773830839_" gradientUnits="userSpaceOnUse" x1="2624.4387" y1="896.3677" x2="2362.5154" y2="1518.4346">
						<stop  offset="0" style="stop-color:#4F52FF"/>
						<stop  offset="1" style="stop-color:#4042E2"/>
					</linearGradient>
					
						<circle style="fill:url(#SVGID_00000048461043932379006210000017817336532773830839_);" cx="2455.675" cy="1297.181" r="103.836"/>
					<path style="fill:#FFFFFF;" d="M2455.675,1423.036c-69.396,0-125.854-56.458-125.854-125.856s56.458-125.856,125.854-125.856
						s125.856,56.458,125.856,125.856S2525.071,1423.036,2455.675,1423.036z M2455.675,1215.361
						c-45.114,0-81.817,36.703-81.817,81.819c0,45.116,36.703,81.819,81.817,81.819c45.114,0,81.819-36.703,81.819-81.819
						C2537.493,1252.064,2500.789,1215.361,2455.675,1215.361z"/>
				</g>
			</g>
			<g>
				
					<linearGradient id="SVGID_00000118385805440027436270000001565795927044256168_" gradientUnits="userSpaceOnUse" x1="-84.9792" y1="4864.8691" x2="-242.0447" y2="5502.9458" gradientTransform="matrix(-0.7071 -0.7071 0.7071 -0.7071 -1192.2574 4633.1733)">
					<stop  offset="0" style="stop-color:#09005D"/>
					<stop  offset="1" style="stop-color:#1A0F91"/>
				</linearGradient>
				<polygon style="fill:url(#SVGID_00000118385805440027436270000001565795927044256168_);" points="3080.129,671.108 
					3094.011,684.991 2568.313,1210.689 2554.43,1196.807 				"/>
				
					<linearGradient id="SVGID_00000098207650211764259370000016527891838917955200_" gradientUnits="userSpaceOnUse" x1="18417.168" y1="-28183.8535" x2="18046.0898" y2="-27522.6621" gradientTransform="matrix(-0.7071 -0.7071 0.7071 -0.7071 -1192.2574 4633.1733)">
					<stop  offset="0" style="stop-color:#FF928E"/>
					<stop  offset="1" style="stop-color:#FE7062"/>
				</linearGradient>
				<path style="fill:url(#SVGID_00000098207650211764259370000016527891838917955200_);" d="M2564.263,1163.31
					c7.964-7.965,45.512,29.583,37.547,37.547l-139.26,109.48c-5.145,4.045-11.812-2.622-7.767-7.767L2564.263,1163.31z"/>
				
					<linearGradient id="SVGID_00000038413332298494239580000003906499904100264369_" gradientUnits="userSpaceOnUse" x1="18694.3145" y1="-28028.3203" x2="18323.2383" y2="-27367.1289" gradientTransform="matrix(-0.7071 -0.7071 0.7071 -0.7071 -1192.2574 4633.1733)">
					<stop  offset="0" style="stop-color:#FF928E"/>
					<stop  offset="1" style="stop-color:#FE7062"/>
				</linearGradient>
				<path style="fill:url(#SVGID_00000038413332298494239580000003906499904100264369_);" d="M3093.711,685.291l70.723,7.029
					l-97.089,97.089c-31.811,31.81-76.212,47.675-120.978,43.225l0,0L3093.711,685.291z"/>
				
					<linearGradient id="SVGID_00000150096120534898969830000010463141182191924159_" gradientUnits="userSpaceOnUse" x1="20610.4102" y1="-29391.127" x2="20239.332" y2="-28729.9336" gradientTransform="matrix(0.7071 0.7071 0.7071 -0.7071 -1682.106 4143.3247)">
					<stop  offset="0" style="stop-color:#FF928E"/>
					<stop  offset="1" style="stop-color:#FE7062"/>
				</linearGradient>
				<path style="fill:url(#SVGID_00000150096120534898969830000010463141182191924159_);" d="M3079.828,671.409l-7.029-70.723
					l-97.089,97.089c-31.811,31.81-47.675,76.211-43.226,120.978l0,0L3079.828,671.409z"/>
			</g>
		</g>
		<g>
			<g>
				
					<linearGradient id="SVGID_00000088854571813851094880000015108558266852822186_" gradientUnits="userSpaceOnUse" x1="1492.2815" y1="881.3128" x2="1671.8711" y2="672.8609">
					<stop  offset="0" style="stop-color:#E1473D"/>
					<stop  offset="1" style="stop-color:#E9605A"/>
				</linearGradient>
				
					<circle style="fill:url(#SVGID_00000088854571813851094880000015108558266852822186_);" cx="1675.499" cy="668.65" r="133.891"/>
				
					<linearGradient id="SVGID_00000149376827527389519530000004604505658730261423_" gradientUnits="userSpaceOnUse" x1="1773.351" y1="520.8235" x2="1242.2996" y2="1323.0907">
					<stop  offset="0" style="stop-color:#FF928E"/>
					<stop  offset="1" style="stop-color:#FE7062"/>
				</linearGradient>
				
					<circle style="fill:url(#SVGID_00000149376827527389519530000004604505658730261423_);" cx="1675.499" cy="668.651" r="129.439"/>
				<path style="opacity:0.78;fill:#FFFFFF;" d="M1568.761,620.319c-0.823,0-1.659-0.186-2.445-0.584
					c-2.681-1.351-3.756-4.622-2.402-7.303c21.389-42.378,64.147-68.703,111.586-68.703c7.574,0,15.154,0.682,22.531,2.026
					c2.955,0.539,4.914,3.369,4.375,6.324c-0.537,2.955-3.377,4.909-6.324,4.375c-6.735-1.229-13.662-1.85-20.583-1.85
					c-43.31,0-82.349,24.036-101.88,62.73C1572.663,619.227,1570.749,620.319,1568.761,620.319z"/>
				
					<ellipse transform="matrix(0.2298 -0.9732 0.9732 0.2298 639.2112 2150.6199)" style="opacity:0.78;fill:#FFFFFF;" cx="1678.319" cy="671.471" rx="109.554" ry="109.554"/>
				<g>
					
						<linearGradient id="SVGID_00000107590521202140960190000000393223821316790971_" gradientUnits="userSpaceOnUse" x1="1734.3806" y1="372.5411" x2="1670.2856" y2="723.3777">
						<stop  offset="0" style="stop-color:#FF928E"/>
						<stop  offset="1" style="stop-color:#FE7062"/>
					</linearGradient>
					<path style="fill:url(#SVGID_00000107590521202140960190000000393223821316790971_);" d="M1667.568,752.914v-11.919
						c-12.425-0.497-24.715-3.43-33.444-7.251c-3.117-1.364-4.706-4.862-3.81-8.144l3.028-11.102c1.111-4.073,5.54-6.18,9.433-4.547
						c8.659,3.63,19.35,6.502,30.878,6.502c11.967,0,20.892-4.057,20.892-12.374c0-7.505-6.896-11.966-23.529-16.429
						c-23.732-6.491-40.771-16.836-40.771-37.729c0-18.865,13.794-33.266,37.729-37.12v-11.92c0-3.836,3.109-6.945,6.945-6.945
						h7.003c3.836,0,6.945,3.109,6.945,6.945v10.702c11.497,0.461,19.867,2.427,26.508,4.76c3.403,1.196,5.262,4.861,4.318,8.343
						l-2.785,10.268c-1.074,3.959-5.305,6.128-9.142,4.677c-6.115-2.312-14.761-4.721-25.999-4.721
						c-14.199,0-18.255,5.883-18.255,11.156c0,6.491,8.519,10.953,26.978,16.634c26.369,7.91,37.322,18.864,37.322,38.539
						c0,18.053-13.387,34.28-39.351,38.337v13.339c0,3.836-3.109,6.945-6.945,6.945h-7.004
						C1670.678,759.859,1667.568,756.75,1667.568,752.914z"/>
				</g>
			</g>
			<g>
				
					<linearGradient id="SVGID_00000040536461188789817860000013743678844345617085_" gradientUnits="userSpaceOnUse" x1="1368.4237" y1="1583.613" x2="1548.0135" y2="1375.1608">
					<stop  offset="0" style="stop-color:#E1473D"/>
					<stop  offset="1" style="stop-color:#E9605A"/>
				</linearGradient>
				
					<circle style="fill:url(#SVGID_00000040536461188789817860000013743678844345617085_);" cx="1551.641" cy="1370.95" r="133.891"/>
				
					<linearGradient id="SVGID_00000106124470600895085090000014789694396694144405_" gradientUnits="userSpaceOnUse" x1="1649.4934" y1="1223.1233" x2="1118.4417" y2="2025.391">
					<stop  offset="0" style="stop-color:#FF928E"/>
					<stop  offset="1" style="stop-color:#FE7062"/>
				</linearGradient>
				
					<circle style="fill:url(#SVGID_00000106124470600895085090000014789694396694144405_);" cx="1551.641" cy="1370.95" r="129.439"/>
				<path style="opacity:0.78;fill:#FFFFFF;" d="M1444.903,1322.618c-0.823,0-1.659-0.186-2.445-0.584
					c-2.681-1.351-3.757-4.622-2.403-7.304c21.389-42.378,64.147-68.703,111.586-68.703c7.574,0,15.153,0.682,22.531,2.026
					c2.955,0.539,4.914,3.369,4.375,6.324c-0.536,2.955-3.377,4.909-6.324,4.375c-6.735-1.229-13.661-1.85-20.582-1.85
					c-43.31,0-82.349,24.036-101.88,62.73C1448.806,1321.527,1446.891,1322.618,1444.903,1322.618z"/>
				
					<ellipse transform="matrix(0.3052 -0.9523 0.9523 0.3052 -228.1606 2434.8337)" style="opacity:0.78;fill:#FFFFFF;" cx="1554.461" cy="1373.771" rx="109.554" ry="109.554"/>
				<g>
					
						<linearGradient id="SVGID_00000160178374315979410100000004799008482896671161_" gradientUnits="userSpaceOnUse" x1="1643.4128" y1="1087.8802" x2="1525.343" y2="1475.8242">
						<stop  offset="0" style="stop-color:#FF928E"/>
						<stop  offset="1" style="stop-color:#FE7062"/>
					</linearGradient>
					<path style="fill:url(#SVGID_00000160178374315979410100000004799008482896671161_);" d="M1543.71,1455.214v-11.919
						c-12.425-0.497-24.715-3.43-33.444-7.251c-3.117-1.364-4.705-4.863-3.81-8.145l3.028-11.102c1.11-4.073,5.54-6.179,9.433-4.547
						c8.659,3.63,19.35,6.501,30.878,6.501c11.967,0,20.892-4.057,20.892-12.374c0-7.504-6.896-11.966-23.529-16.429
						c-23.732-6.491-40.771-16.836-40.771-37.729c0-18.865,13.793-33.266,37.728-37.12v-11.92c0-3.835,3.109-6.945,6.945-6.945
						h7.003c3.835,0,6.945,3.11,6.945,6.945v10.702c11.497,0.46,19.866,2.426,26.508,4.76c3.403,1.196,5.263,4.861,4.319,8.343
						l-2.785,10.268c-1.074,3.959-5.305,6.128-9.142,4.677c-6.115-2.312-14.761-4.72-25.998-4.72
						c-14.2,0-18.256,5.882-18.256,11.156c0,6.491,8.519,10.953,26.978,16.633c26.37,7.91,37.322,18.864,37.322,38.54
						c0,18.053-13.386,34.28-39.351,38.337v13.339c0,3.836-3.109,6.945-6.945,6.945h-7.003
						C1546.82,1462.159,1543.71,1459.05,1543.71,1455.214z"/>
				</g>
			</g>
			<g>
				
					<linearGradient id="SVGID_00000101815899562961635460000016876882375212817040_" gradientUnits="userSpaceOnUse" x1="1063.1797" y1="1319.1106" x2="1343.752" y2="993.4467">
					<stop  offset="0" style="stop-color:#E1473D"/>
					<stop  offset="1" style="stop-color:#E9605A"/>
				</linearGradient>
				
					<circle style="fill:url(#SVGID_00000101815899562961635460000016876882375212817040_);" cx="1349.419" cy="986.869" r="209.177"/>
				
					<linearGradient id="SVGID_00000103970736339209405230000015060111245612027277_" gradientUnits="userSpaceOnUse" x1="1502.2937" y1="755.9189" x2="672.6335" y2="2009.2991">
					<stop  offset="0" style="stop-color:#FF928E"/>
					<stop  offset="1" style="stop-color:#FE7062"/>
				</linearGradient>
				
					<circle style="fill:url(#SVGID_00000103970736339209405230000015060111245612027277_);" cx="1349.419" cy="986.869" r="202.222"/>
				<path style="opacity:0.78;fill:#FFFFFF;" d="M1182.666,907.745c-0.739,0-1.49-0.167-2.195-0.524
					c-2.406-1.213-3.371-4.148-2.156-6.554c32.801-64.983,98.363-105.351,171.104-105.351c11.612,0,23.237,1.046,34.551,3.109
					c2.652,0.484,4.41,3.026,3.927,5.675c-0.486,2.652-3.019,4.405-5.675,3.927c-10.741-1.958-21.776-2.952-32.803-2.952
					c-69.036,0-131.26,38.313-162.393,99.99C1186.168,906.766,1184.45,907.745,1182.666,907.745z"/>
				
					<ellipse transform="matrix(0.7071 -0.7071 0.7071 0.7071 -304.4107 1247.6368)" style="opacity:0.78;fill:#FFFFFF;" cx="1353.825" cy="991.275" rx="171.156" ry="171.156"/>
				<g>
					
						<linearGradient id="SVGID_00000139972443595283890300000017745970524112646559_" gradientUnits="userSpaceOnUse" x1="1504.7731" y1="542.4299" x2="1325.9807" y2="1085.5524">
						<stop  offset="0" style="stop-color:#FF928E"/>
						<stop  offset="1" style="stop-color:#FE7062"/>
					</linearGradient>
					<path style="fill:url(#SVGID_00000139972443595283890300000017745970524112646559_);" d="M1337.029,1118.514v-18.621
						c-19.412-0.778-38.612-5.359-52.249-11.328c-4.87-2.131-7.352-7.596-5.953-12.725l4.731-17.345
						c1.735-6.362,8.655-9.654,14.738-7.104c13.527,5.671,30.231,10.157,48.241,10.157c18.697,0,32.64-6.339,32.64-19.332
						c0-11.724-10.774-18.695-36.76-25.666c-37.077-10.141-63.697-26.303-63.697-58.944c0-29.473,21.55-51.972,58.943-57.992
						v-18.623c0-5.993,4.858-10.85,10.85-10.85h10.941c5.993,0,10.85,4.857,10.85,10.85v16.72
						c17.962,0.719,31.037,3.79,41.414,7.437c5.316,1.868,8.221,7.595,6.746,13.034l-4.35,16.041
						c-1.677,6.185-8.288,9.574-14.283,7.307c-9.554-3.613-23.061-7.374-40.618-7.374c-22.183,0-28.52,9.189-28.52,17.429
						c0,10.14,13.309,17.112,42.146,25.986c41.198,12.359,58.309,29.471,58.309,60.21c0,28.204-20.915,53.555-61.477,59.894v20.839
						c0,5.992-4.857,10.85-10.849,10.85h-10.942C1341.887,1129.364,1337.029,1124.507,1337.029,1118.514z"/>
				</g>
			</g>
			<g>
				
					<linearGradient id="SVGID_00000144301876433559856270000000477648708043787195_" gradientUnits="userSpaceOnUse" x1="1580.7217" y1="1335.3274" x2="1793.4441" y2="1088.4178">
					<stop  offset="0" style="stop-color:#E1473D"/>
					<stop  offset="1" style="stop-color:#E9605A"/>
				</linearGradient>
				
					<circle style="fill:url(#SVGID_00000144301876433559856270000000477648708043787195_);" cx="1797.741" cy="1083.43" r="158.593"/>
				
					<linearGradient id="SVGID_00000002345417960285395680000003939194946899330751_" gradientUnits="userSpaceOnUse" x1="1913.6459" y1="908.3309" x2="1284.6205" y2="1858.609">
					<stop  offset="0" style="stop-color:#FF928E"/>
					<stop  offset="1" style="stop-color:#FE7062"/>
				</linearGradient>
				
					<circle style="fill:url(#SVGID_00000002345417960285395680000003939194946899330751_);" cx="1797.741" cy="1083.43" r="153.319"/>
				<path style="opacity:0.78;fill:#FFFFFF;" d="M1671.312,1024.648c-0.743,0-1.498-0.168-2.207-0.527
					c-2.42-1.219-3.39-4.171-2.169-6.591c25.076-49.677,75.197-80.536,130.804-80.536c8.87,0,17.759,0.8,26.413,2.377
					c2.666,0.487,4.434,3.04,3.948,5.707c-0.484,2.666-3.05,4.425-5.707,3.948c-8.077-1.474-16.372-2.219-24.654-2.219
					c-51.881,0-98.646,28.794-122.044,75.146C1674.834,1023.663,1673.107,1024.648,1671.312,1024.648z"/>
				
					<ellipse transform="matrix(0.7071 -0.7071 0.7071 0.7071 -240.9387 1591.8646)" style="opacity:0.78;fill:#FFFFFF;" cx="1801.081" cy="1086.771" rx="129.766" ry="129.766"/>
				<g>
					
						<linearGradient id="SVGID_00000155121836103193664650000018044512135945744822_" gradientUnits="userSpaceOnUse" x1="1904.2634" y1="793.8477" x2="1755.8328" y2="1225.6462">
						<stop  offset="0" style="stop-color:#FF928E"/>
						<stop  offset="1" style="stop-color:#FE7062"/>
					</linearGradient>
					<path style="fill:url(#SVGID_00000155121836103193664650000018044512135945744822_);" d="M1788.347,1183.241v-14.118
						c-14.717-0.589-29.274-4.063-39.613-8.589c-3.692-1.616-5.574-5.759-4.513-9.648l3.586-13.15
						c1.316-4.824,6.562-7.319,11.174-5.386c10.256,4.3,22.92,7.701,36.575,7.701c14.175,0,24.747-4.806,24.747-14.657
						c0-8.889-8.169-14.175-27.871-19.46c-28.11-7.688-48.293-19.942-48.293-44.689c0-22.345,16.339-39.404,44.689-43.967v-14.119
						c0-4.543,3.682-8.226,8.225-8.226h8.295c4.543,0,8.226,3.683,8.226,8.226v12.676c13.618,0.545,23.531,2.874,31.399,5.638
						c4.031,1.416,6.233,5.758,5.115,9.882l-3.298,12.162c-1.272,4.689-6.284,7.259-10.83,5.54
						c-7.243-2.739-17.484-5.591-30.795-5.591c-16.819,0-21.623,6.967-21.623,13.214c0,7.688,10.09,12.974,31.955,19.702
						c31.234,9.37,44.208,22.344,44.208,45.65c0,21.383-15.857,40.605-46.611,45.41v15.8c0,4.543-3.682,8.226-8.226,8.226h-8.295
						C1792.03,1191.467,1788.347,1187.784,1788.347,1183.241z"/>
				</g>
			</g>
		</g>
		<g style="opacity:0.54;">
			
				<rect x="2874.556" y="2361.379" transform="matrix(-1 -1.224647e-16 1.224647e-16 -1 5862.0273 5233.8154)" style="fill:#FFFFFF;" width="112.915" height="511.057"/>
			
				<rect x="2685.891" y="2537.021" transform="matrix(-1 -1.224647e-16 1.224647e-16 -1 5484.6948 5409.457)" style="fill:#FFFFFF;" width="112.913" height="335.415"/>
			
				<rect x="2497.222" y="2102.932" transform="matrix(-1 -1.224647e-16 1.224647e-16 -1 5107.3579 4975.3687)" style="fill:#FFFFFF;" width="112.913" height="769.504"/>
			
				<rect x="2308.555" y="2687.572" transform="matrix(-1 -1.224647e-16 1.224647e-16 -1 4730.0225 5560.0078)" style="fill:#FFFFFF;" width="112.912" height="184.865"/>
			
				<rect x="2119.887" y="2205.81" transform="matrix(-1 -1.224647e-16 1.224647e-16 -1 4352.6885 5078.2461)" style="fill:#FFFFFF;" width="112.914" height="666.626"/>
			
				<rect x="1931.219" y="2321.232" transform="matrix(-1 -1.224647e-16 1.224647e-16 -1 3975.3533 5193.668)" style="fill:#FFFFFF;" width="112.916" height="551.205"/>
			
				<rect x="1742.553" y="2446.692" transform="matrix(-1 -1.224647e-16 1.224647e-16 -1 3598.0181 5319.1279)" style="fill:#FFFFFF;" width="112.912" height="425.745"/>
			
				<rect x="1553.886" y="1947.363" transform="matrix(-1 -1.224647e-16 1.224647e-16 -1 3220.6841 4819.7993)" style="fill:#FFFFFF;" width="112.912" height="925.073"/>
			
				<rect x="1365.218" y="2045.222" transform="matrix(-1 -1.224647e-16 1.224647e-16 -1 2843.3501 4917.6587)" style="fill:#FFFFFF;" width="112.915" height="827.214"/>
			
				<rect x="1176.549" y="2193.265" transform="matrix(-1 -1.224647e-16 1.224647e-16 -1 2466.0134 5065.7007)" style="fill:#FFFFFF;" width="112.915" height="679.172"/>
			
				<rect x="987.884" y="2704.729" transform="matrix(-1 -1.224647e-16 1.224647e-16 -1 2088.6794 5577.1655)" style="fill:#FFFFFF;" width="112.912" height="167.707"/>
			
				<rect x="799.216" y="2378.943" transform="matrix(-1 -1.224647e-16 1.224647e-16 -1 1711.3441 5251.3794)" style="fill:#FFFFFF;" width="112.913" height="493.493"/>
		</g>
		<g>
			<g>
				<g>
					
						<linearGradient id="SVGID_00000057108429971024245880000010899854816526813065_" gradientUnits="userSpaceOnUse" x1="1820.0126" y1="1760.6819" x2="1473.5278" y2="1847.7385">
						<stop  offset="0" style="stop-color:#FEBBBA"/>
						<stop  offset="1" style="stop-color:#FF928E"/>
					</linearGradient>
					<path style="fill:url(#SVGID_00000057108429971024245880000010899854816526813065_);" d="M1494.074,1824.241
						c0,0-16.201-42.648-35.125-38.742c-18.923,3.906-39.625,18.443-39.625,18.443l-30.401,41.114c0,0,85.34,33.62,115.354,14.353
						c0,0,87.169,15.062,197.246-3.001c-15.934-33.642-25.432-67.323-31.009-93.467
						C1614.762,1794.5,1554.711,1818.073,1494.074,1824.241z"/>
					
						<linearGradient id="SVGID_00000053535266389687806270000007656611882123961479_" gradientUnits="userSpaceOnUse" x1="2301.0708" y1="1118.9325" x2="1811.9226" y2="1756.5111">
						<stop  offset="0" style="stop-color:#FF928E"/>
						<stop  offset="1" style="stop-color:#FE7062"/>
					</linearGradient>
					<path style="fill:url(#SVGID_00000053535266389687806270000007656611882123961479_);" d="M1955.816,1514.902
						c0,0-124.803,157.192-285.3,248.041c5.577,26.144,15.075,59.824,31.009,93.467c83.259-13.662,179.618-46.267,261.309-118.716
						L1955.816,1514.902z"/>
				</g>
				
					<linearGradient id="SVGID_00000180336917935266046640000000453003582829885097_" gradientUnits="userSpaceOnUse" x1="2553.6963" y1="1312.7465" x2="2064.5496" y2="1950.3234">
					<stop  offset="0" style="stop-color:#FF928E"/>
					<stop  offset="1" style="stop-color:#FE7062"/>
				</linearGradient>
				<path style="fill:url(#SVGID_00000180336917935266046640000000453003582829885097_);" d="M2111.46,2211.617
					c-24.407-115.932-48.814-183.05-130.537-402.796c-25.719-69.151-49.073-139.118-37.785-212.031l12.677-81.888
					c0,0,158.82-53.742,334.869-2.263c0,0,240.187,104.341,77.045,619.656C2294.195,2214.566,2208.135,2238.013,2111.46,2211.617z"
					/>
				
					<linearGradient id="SVGID_00000172437898235938613440000017206914765842009985_" gradientUnits="userSpaceOnUse" x1="778.6968" y1="1442.7937" x2="728.5695" y2="1292.4114" gradientTransform="matrix(1 0 0 1 1290.1023 0)">
					<stop  offset="0" style="stop-color:#FEBBBA"/>
					<stop  offset="1" style="stop-color:#FF928E"/>
				</linearGradient>
				<path style="fill:url(#SVGID_00000172437898235938613440000017206914765842009985_);" d="M1982.851,1410.389l41.182,98.937
					c2.602,6.249,8.224,10.702,14.895,11.846c23.744,4.073,81.17,10.433,118.884-14.366c4.494-2.956,5.637-9.064,2.564-13.477
					l-76.084-109.233L1982.851,1410.389z"/>
				<g>
					
						<linearGradient id="SVGID_00000127765461616406444170000014198799241218748566_" gradientUnits="userSpaceOnUse" x1="1971.2755" y1="1316.9451" x2="2151.4431" y2="1395.2789">
						<stop  offset="0" style="stop-color:#FEBBBA"/>
						<stop  offset="1" style="stop-color:#FF928E"/>
					</linearGradient>
					<path style="fill:url(#SVGID_00000127765461616406444170000014198799241218748566_);" d="M2025.441,1259.017
						c-1.729,1.628-72.994,141.575-72.994,141.575l80.772,38.992l87.25-122.605
						C2120.469,1316.979,2054.396,1231.761,2025.441,1259.017z"/>
					
						<linearGradient id="SVGID_00000050663254773745673600000016222924379240879794_" gradientUnits="userSpaceOnUse" x1="5191.1064" y1="5669.3271" x2="5406.3286" y2="5669.3271" gradientTransform="matrix(-0.6854 -0.7281 -0.7281 0.6854 9787.373 1318.7853)">
						<stop  offset="0" style="stop-color:#09005D"/>
						<stop  offset="1" style="stop-color:#1A0F91"/>
					</linearGradient>
					<path style="fill:url(#SVGID_00000050663254773745673600000016222924379240879794_);" d="M2083.763,1331.69l-40.285,67.153
						c-0.611,1.019-1.339,1.94-2.209,2.75c-4.794,4.464-21.203,17.446-33.888-0.23c-10.811-15.066-20.954-28.762-31.824-34.411
						c-6.347-3.298-14.158-0.665-17.381,5.722c-6.637,13.156-19.494,39.971-27.57,65.4c-2.024,6.373,1.265,13.215,7.463,15.726
						c16.357,6.626,48.681,18.61,77.365,22.569c4.712,0.65,9.377-1.337,12.181-5.179c12.341-16.906,47.125-64.153,58.996-75.979
						c11.028-10.987,31.384-6.845,40.556-4.209c3.481,1.001,7.189,0.519,10.292-1.35c9.306-5.606,25.546-19.564,10.689-43.197
						c-3.694-5.876-1.81-13.702,3.988-17.516c10.39-6.835,21.665-19.664,10.923-40.439c-10.874-21.03-30.291-22.92-43.517-21.302
						c-5.852,0.715-11.792-2.354-14.037-7.805c-0.998-2.424-2.972-4.491-6.648-5.236c-6.932-1.406-11.482-7.745-10.121-14.687
						c2.332-11.901,0.576-27.361-18.427-37.808c-34.85-19.162-65.378,12.06-73.14,38.416c-7.763,26.357,31.203,44.982,55.715,48.091
						c18.003,2.284,27.875,21.934,31.847,32.205C2086.173,1324.101,2085.819,1328.261,2083.763,1331.69z"/>
					
						<linearGradient id="SVGID_00000006682091311502660900000008778158007367127454_" gradientUnits="userSpaceOnUse" x1="1960.0485" y1="1342.7672" x2="2140.2158" y2="1421.101">
						<stop  offset="0" style="stop-color:#FEBBBA"/>
						<stop  offset="1" style="stop-color:#FF928E"/>
					</linearGradient>
					<path style="fill:url(#SVGID_00000006682091311502660900000008778158007367127454_);" d="M2069.642,1415.316
						c0,0,17.335-40.787,37.171-39.122c19.837,1.664,35.449,21.426,10.865,43.641
						C2087.098,1447.467,2069.642,1415.316,2069.642,1415.316z"/>
				</g>
				<g>
					
						<linearGradient id="SVGID_00000125588895438689991750000017756638221799883442_" gradientUnits="userSpaceOnUse" x1="2440.3481" y1="3244.1694" x2="2664.2571" y2="3244.1694" gradientTransform="matrix(-1 0 0 1 4753.7588 0)">
						<stop  offset="0" style="stop-color:#09005D"/>
						<stop  offset="1" style="stop-color:#1A0F91"/>
					</linearGradient>
					<path style="fill:url(#SVGID_00000125588895438689991750000017756638221799883442_);" d="M2095.824,3233.34
						c38.358,3.316,104.932,8.701,157.415,11.011c31.548,1.389,49.711-1.701,60.171-5.887c-0.018,1.178-0.05,2.293-0.096,3.328
						c-0.248,5.522-4.737,9.941-10.314,10.252c-99.169,5.535-178.038,1.916-206.116,0.207c-5.806-0.354-9.266-6.663-6.297-11.613
						C2092.073,3238.163,2093.871,3235.737,2095.824,3233.34z"/>
					
						<linearGradient id="SVGID_00000016037302924316123630000003381398184855522725_" gradientUnits="userSpaceOnUse" x1="2853.8596" y1="3034.6819" x2="2043.106" y2="3265.7656">
						<stop  offset="0" style="stop-color:#4F52FF"/>
						<stop  offset="1" style="stop-color:#4042E2"/>
					</linearGradient>
					<path style="fill:url(#SVGID_00000016037302924316123630000003381398184855522725_);" d="M2253.239,3244.351
						c-52.483-2.31-119.056-7.695-157.415-11.011c37.713-46.268,157.415-77.454,157.415-77.454h33.808
						c23.252,33.517,26.619,65.428,26.364,82.578C2302.95,3242.65,2284.787,3245.74,2253.239,3244.351z"/>
					
						<linearGradient id="SVGID_00000028307083969117880410000002925733261508382646_" gradientUnits="userSpaceOnUse" x1="2461.0198" y1="3139.0195" x2="2524.0911" y2="3139.0195" gradientTransform="matrix(-1 0 0 1 4753.7588 0)">
						<stop  offset="0" style="stop-color:#FEBBBA"/>
						<stop  offset="1" style="stop-color:#FF928E"/>
					</linearGradient>
					<path style="fill:url(#SVGID_00000028307083969117880410000002925733261508382646_);" d="M2292.739,3100.693l-3.164,62.605
						c-0.342,6.779-5.418,12.476-12.207,13.447c-6.755,0.966-15.802,1.09-25.395-2.104c-5.902-1.965-10.285-6.938-11.373-13.004
						l-10.932-60.944H2292.739z"/>
				</g>
				<g>
					<g>
						
							<linearGradient id="SVGID_00000002346265370256403380000017160344231492547726_" gradientUnits="userSpaceOnUse" x1="1993.9667" y1="3239.3406" x2="2079.7717" y2="3239.3406" gradientTransform="matrix(-1 0 0 1 4753.7588 0)">
							<stop  offset="0" style="stop-color:#09005D"/>
							<stop  offset="1" style="stop-color:#1A0F91"/>
						</linearGradient>
						<path style="fill:url(#SVGID_00000002346265370256403380000017160344231492547726_);" d="M2731.852,3243.881
							c16.634-2.319,24.161-10.961,27.315-20.2c0.021,0.084,0.043,0.167,0.063,0.25c2.447,9.745-3.227,19.844-14.569,24.647
							c-13.71,5.805-28.699,6.795-40.337,6.315c-12.484-0.515-23.945-5.682-30.243-13.95l-0.094-0.125
							C2686.519,3247.021,2704.11,3247.751,2731.852,3243.881z"/>
						
							<linearGradient id="SVGID_00000063598768164462533430000001452816608033102778_" gradientUnits="userSpaceOnUse" x1="2401.8777" y1="2987.7139" x2="2907.1296" y2="3316.7153">
							<stop  offset="0" style="stop-color:#4F52FF"/>
							<stop  offset="1" style="stop-color:#4042E2"/>
						</linearGradient>
						<path style="fill:url(#SVGID_00000063598768164462533430000001452816608033102778_);" d="M2653.423,3100.291h27.88
							c42.468-0.868,69.136,88.704,77.864,123.39c-3.155,9.239-10.681,17.88-27.315,20.2c-27.741,3.87-45.333,3.14-57.865-3.062
							c-22.943-30.191-34.319-74.409-39.786-100.216C2627.982,3111.254,2653.423,3100.291,2653.423,3100.291z"/>
					</g>
					
						<linearGradient id="SVGID_00000078745975825822664610000002519993676358320817_" gradientUnits="userSpaceOnUse" x1="2060.0554" y1="3086.4419" x2="2135.4309" y2="3086.4419" gradientTransform="matrix(-1 0 0 1 4753.7588 0)">
						<stop  offset="0" style="stop-color:#FEBBBA"/>
						<stop  offset="1" style="stop-color:#FF928E"/>
					</linearGradient>
					<path style="fill:url(#SVGID_00000078745975825822664610000002519993676358320817_);" d="M2677.72,3042.184l15.481,61.575
						c1.899,7.549-1.715,15.358-8.696,18.94c-8.661,4.445-20.854,9.115-32.06,7.763c-5.271-0.636-9.648-4.347-11.39-9.31
						l-22.728-64.783L2677.72,3042.184z"/>
				</g>
				
					<linearGradient id="SVGID_00000158735029707408089210000017071977300615539120_" gradientUnits="userSpaceOnUse" x1="-283.5757" y1="3197.1157" x2="866.5901" y2="1606.9564" gradientTransform="matrix(-1 0 0 1 2420.7585 0)">
					<stop  offset="0" style="stop-color:#09005D"/>
					<stop  offset="1" style="stop-color:#1A0F91"/>
				</linearGradient>
				<path style="fill:url(#SVGID_00000158735029707408089210000017071977300615539120_);" d="M2696.186,3059.982
					c-19.261,17.086-81.912,19.341-81.912,19.341c-225.677-541.648-319.764-690.758-319.764-690.758
					c32.585,204.442,7.023,729.215,7.023,729.215c-37.241,16.433-85.254,0-85.254,0c-3.024-334.699-50.148-694.347-110.922-924.468
					c152.531-3.427,235.425-36.679,261.911-57.627C2494.414,2340.666,2696.186,3059.982,2696.186,3059.982z"/>
				<g>
					
						<linearGradient id="SVGID_00000039106421029796568110000006725480113375208636_" gradientUnits="userSpaceOnUse" x1="-21.8076" y1="3753.2349" x2="-28.8022" y2="3107.3889" gradientTransform="matrix(0.9919 -0.127 0.127 0.9919 1989.9969 -609.5969)">
						<stop  offset="0" style="stop-color:#4F52FF"/>
						<stop  offset="1" style="stop-color:#4042E2"/>
					</linearGradient>
					<path style="fill:url(#SVGID_00000039106421029796568110000006725480113375208636_);" d="M2066.932,2344.674l28.067,174.566
						c4.895,30.439,33.09,51.554,63.838,47.803l420.073-51.239c20.55-2.507,36.135-19.666,36.546-40.27
						c0.899-45.106-0.873-125.38-19.803-198.517L2066.932,2344.674z"/>
					<path style="fill:#FFFFFF;" d="M2162.319,2556.189c-0.623,0-1.136-0.494-1.159-1.12c-0.02-0.641,0.484-1.176,1.123-1.196
						c1.608-0.051,3.238-0.178,4.849-0.374l4.266-0.521c0.695-0.079,1.216,0.374,1.292,1.01c0.079,0.634-0.376,1.212-1.008,1.29
						l-4.266,0.521c-1.68,0.206-3.383,0.336-5.06,0.391C2162.343,2556.189,2162.333,2556.189,2162.319,2556.189z M2193.01,2552.667
						c-0.58,0-1.077-0.43-1.15-1.018c-0.079-0.636,0.375-1.212,1.008-1.29l9.201-1.122c0.695-0.094,1.216,0.375,1.292,1.01
						c0.079,0.636-0.375,1.212-1.008,1.29l-9.201,1.122C2193.102,2552.665,2193.056,2552.667,2193.01,2552.667z M2141.127,2552.662
						c-0.135,0-0.277-0.025-0.412-0.076c-2.932-1.112-5.801-2.486-8.523-4.083c-0.553-0.324-0.738-1.034-0.412-1.586
						c0.323-0.553,1.041-0.729,1.584-0.413c2.609,1.533,5.36,2.851,8.173,3.915c0.596,0.227,0.899,0.896,0.672,1.494
						C2142.036,2552.375,2141.594,2552.662,2141.127,2552.662z M2223.684,2548.926c-0.58,0-1.077-0.43-1.15-1.018
						c-0.079-0.634,0.375-1.212,1.008-1.29l9.201-1.123c0.692-0.084,1.216,0.375,1.292,1.01c0.079,0.634-0.376,1.212-1.008,1.29
						l-9.201,1.124C2223.776,2548.925,2223.729,2548.926,2223.684,2548.926z M2254.354,2545.187c-0.58,0-1.077-0.431-1.15-1.02
						c-0.079-0.634,0.375-1.212,1.008-1.29l9.201-1.123c0.692-0.077,1.216,0.374,1.291,1.01c0.079,0.634-0.375,1.212-1.008,1.29
						l-9.201,1.124C2254.446,2545.184,2254.4,2545.187,2254.354,2545.187z M2285.024,2541.445c-0.58,0-1.077-0.431-1.15-1.02
						c-0.079-0.634,0.375-1.212,1.008-1.29l9.201-1.122c0.692-0.092,1.216,0.375,1.292,1.01c0.079,0.636-0.376,1.212-1.008,1.29
						l-9.201,1.122C2285.117,2541.441,2285.071,2541.445,2285.024,2541.445z M2315.695,2537.702c-0.58,0-1.077-0.43-1.15-1.018
						c-0.079-0.636,0.375-1.212,1.008-1.29l9.201-1.122c0.692-0.084,1.216,0.376,1.292,1.01c0.079,0.636-0.375,1.212-1.008,1.29
						l-9.201,1.122C2315.787,2537.701,2315.741,2537.702,2315.695,2537.702z M2116.739,2534.367c-0.349,0-0.698-0.158-0.926-0.461
						c-1.898-2.519-3.588-5.215-5.021-8.012c-0.293-0.57-0.066-1.268,0.504-1.56c0.557-0.293,1.265-0.069,1.558,0.502
						c1.374,2.68,2.991,5.263,4.81,7.676c0.385,0.511,0.283,1.237-0.227,1.623
						C2117.226,2534.291,2116.982,2534.367,2116.739,2534.367z M2346.365,2533.963c-0.58,0-1.077-0.432-1.15-1.02
						c-0.079-0.636,0.375-1.212,1.008-1.29l9.201-1.122c0.692-0.099,1.216,0.374,1.291,1.01c0.079,0.634-0.375,1.212-1.008,1.29
						l-9.201,1.122C2346.458,2533.96,2346.412,2533.963,2346.365,2533.963z M2377.036,2530.221c-0.58,0-1.077-0.43-1.15-1.018
						c-0.079-0.634,0.375-1.212,1.008-1.29l9.201-1.123c0.692-0.089,1.216,0.375,1.292,1.01c0.079,0.634-0.376,1.212-1.008,1.29
						l-9.201,1.123C2377.128,2530.219,2377.082,2530.221,2377.036,2530.221z M2407.707,2526.48c-0.58,0-1.077-0.431-1.15-1.02
						c-0.079-0.636,0.375-1.212,1.008-1.29l9.201-1.122c0.692-0.083,1.216,0.375,1.291,1.01c0.079,0.634-0.375,1.212-1.008,1.29
						l-9.201,1.122C2407.799,2526.477,2407.753,2526.48,2407.707,2526.48z M2438.377,2522.739c-0.58,0-1.077-0.432-1.15-1.02
						c-0.079-0.636,0.375-1.212,1.008-1.29l9.201-1.122c0.692-0.097,1.216,0.374,1.291,1.01c0.079,0.636-0.375,1.212-1.008,1.29
						l-9.201,1.122C2438.469,2522.736,2438.423,2522.739,2438.377,2522.739z M2469.048,2518.997c-0.58,0-1.077-0.43-1.15-1.018
						c-0.079-0.636,0.375-1.212,1.008-1.29l9.201-1.122c0.692-0.089,1.216,0.376,1.292,1.01c0.079,0.636-0.376,1.212-1.008,1.29
						l-9.201,1.122C2469.14,2518.995,2469.094,2518.997,2469.048,2518.997z M2499.718,2515.258c-0.58,0-1.077-0.432-1.15-1.02
						c-0.079-0.634,0.375-1.212,1.008-1.29l9.201-1.123c0.692-0.081,1.216,0.374,1.291,1.01c0.079,0.634-0.375,1.212-1.008,1.29
						l-9.201,1.123C2499.81,2515.254,2499.764,2515.258,2499.718,2515.258z M2530.388,2511.514c-0.58,0-1.077-0.43-1.15-1.018
						c-0.079-0.636,0.375-1.212,1.008-1.29l9.201-1.122c0.692-0.095,1.216,0.376,1.292,1.01c0.079,0.636-0.376,1.212-1.008,1.29
						l-9.201,1.122C2530.481,2511.512,2530.435,2511.514,2530.388,2511.514z M2561.059,2507.775c-0.58,0-1.077-0.432-1.15-1.02
						c-0.079-0.636,0.376-1.212,1.008-1.29l5.986-0.73c1.051-0.128,2.088-0.298,3.106-0.507c0.646-0.127,1.239,0.277,1.37,0.903
						c0.129,0.626-0.277,1.239-0.903,1.367c-1.084,0.222-2.181,0.402-3.291,0.537l-5.986,0.73
						C2561.151,2507.771,2561.105,2507.775,2561.059,2507.775z M2105.805,2505.869c-0.56,0-1.051-0.407-1.143-0.975l-1.473-9.152
						c-0.102-0.632,0.326-1.227,0.959-1.329c0.649-0.102,1.225,0.33,1.327,0.96l1.473,9.152c0.102,0.632-0.326,1.227-0.958,1.329
						C2105.927,2505.864,2105.864,2505.869,2105.805,2505.869z M2589.232,2496.755c-0.31,0-0.619-0.123-0.85-0.369
						c-0.435-0.469-0.408-1.202,0.063-1.639c2.194-2.038,4.154-4.337,5.824-6.833c0.349-0.532,1.074-0.674,1.604-0.32
						c0.534,0.356,0.676,1.076,0.32,1.608c-1.766,2.646-3.844,5.083-6.174,7.244
						C2589.799,2496.653,2589.516,2496.755,2589.232,2496.755z M2100.899,2475.363c-0.56,0-1.054-0.407-1.143-0.977l-1.469-9.15
						c-0.102-0.632,0.326-1.227,0.958-1.329c0.666-0.099,1.229,0.331,1.328,0.96l1.469,9.153c0.102,0.631-0.326,1.226-0.958,1.328
						C2101.021,2475.358,2100.959,2475.363,2100.899,2475.363z M2601.807,2469.407c-0.016,0-0.033,0-0.049,0
						c-0.639-0.028-1.136-0.568-1.107-1.209l0.013-0.634c0.056-2.749,0.099-5.61,0.128-8.597c0.007-0.636,0.524-1.146,1.16-1.146
						c0.003,0,0.007,0,0.01,0c0.642,0.005,1.156,0.531,1.15,1.169c-0.03,2.996-0.073,5.864-0.129,8.597
						c0,0.224-0.006,0.468-0.02,0.713C2602.937,2468.921,2602.423,2469.407,2601.807,2469.407z M2095.997,2444.856
						c-0.56,0-1.051-0.405-1.143-0.975l-1.473-9.152c-0.102-0.633,0.326-1.227,0.959-1.329c0.649-0.112,1.226,0.333,1.328,0.96
						l1.472,9.152c0.102,0.632-0.326,1.227-0.958,1.329C2096.119,2444.851,2096.057,2444.856,2095.997,2444.856z M2601.912,2438.504
						c-0.633,0-1.15-0.507-1.16-1.142c-0.043-3.013-0.102-6.099-0.178-9.26c-0.013-0.641,0.491-1.171,1.133-1.186
						c0.007,0,0.017,0,0.027,0c0.629,0,1.143,0.499,1.159,1.13c0.076,3.169,0.135,6.264,0.178,9.283
						c0.007,0.639-0.504,1.166-1.143,1.175C2601.922,2438.504,2601.919,2438.504,2601.912,2438.504z M2091.092,2414.35
						c-0.56,0-1.051-0.407-1.143-0.975l-1.473-9.152c-0.102-0.632,0.326-1.227,0.959-1.327c0.636-0.127,1.225,0.331,1.328,0.958
						l1.472,9.152c0.102,0.632-0.326,1.227-0.958,1.328C2091.214,2414.345,2091.151,2414.35,2091.092,2414.35z M2600.947,2407.611
						c-0.616,0-1.126-0.481-1.156-1.102c-0.148-3.039-0.316-6.123-0.504-9.246c-0.04-0.639,0.448-1.188,1.087-1.226
						c0.629-0.058,1.186,0.448,1.226,1.087c0.188,3.131,0.356,6.223,0.504,9.272c0.033,0.639-0.461,1.183-1.1,1.214
						C2600.983,2407.611,2600.964,2407.611,2600.947,2407.611z M2086.187,2383.844c-0.56,0-1.054-0.407-1.143-0.977l-1.469-9.153
						c-0.102-0.631,0.326-1.226,0.959-1.328c0.652-0.104,1.229,0.331,1.328,0.96l1.469,9.153c0.102,0.633-0.326,1.227-0.959,1.329
						C2086.309,2383.839,2086.246,2383.844,2086.187,2383.844z M2598.862,2376.778c-0.596,0-1.1-0.455-1.153-1.057
						c-0.267-3.049-0.553-6.123-0.86-9.219c-0.063-0.636,0.402-1.204,1.038-1.267c0.728-0.043,1.206,0.405,1.268,1.04
						c0.306,3.103,0.593,6.187,0.86,9.246c0.056,0.637-0.415,1.199-1.051,1.255
						C2598.928,2376.778,2598.895,2376.778,2598.862,2376.778z M2081.285,2353.337c-0.56,0-1.051-0.407-1.143-0.975l-1.473-9.152
						c-0.102-0.632,0.326-1.227,0.959-1.329c0.636-0.101,1.226,0.329,1.328,0.96l1.473,9.152c0.102,0.632-0.326,1.227-0.959,1.329
						C2081.406,2353.332,2081.344,2353.337,2081.285,2353.337z M2595.534,2346.054c-0.573,0-1.074-0.427-1.15-1.01
						c-0.399-3.044-0.817-6.098-1.262-9.16c-0.092-0.634,0.346-1.22,0.982-1.313c0.672-0.104,1.219,0.349,1.311,0.98
						c0.445,3.072,0.87,6.139,1.268,9.193c0.083,0.634-0.365,1.216-0.998,1.3
						C2595.633,2346.051,2595.584,2346.054,2595.534,2346.054z M2089.043,2343.004c-0.576,0-1.074-0.428-1.15-1.013
						c-0.083-0.634,0.369-1.214,1.001-1.296l9.195-1.176c0.738-0.076,1.216,0.372,1.298,1.003c0.082,0.634-0.369,1.214-1.001,1.296
						l-9.195,1.176C2089.138,2343,2089.089,2343.004,2089.043,2343.004z M2119.694,2339.082c-0.576,0-1.074-0.428-1.15-1.013
						c-0.082-0.634,0.369-1.214,1.001-1.296l9.195-1.176c0.731-0.091,1.216,0.372,1.298,1.003c0.082,0.634-0.369,1.214-1.001,1.296
						l-9.195,1.176C2119.789,2339.079,2119.74,2339.082,2119.694,2339.082z M2150.341,2335.16c-0.576,0-1.074-0.428-1.15-1.013
						c-0.082-0.634,0.369-1.214,1.001-1.296l9.195-1.176c0.725-0.082,1.216,0.372,1.298,1.003c0.083,0.634-0.369,1.214-1.001,1.296
						l-9.195,1.176C2150.437,2335.157,2150.387,2335.16,2150.341,2335.16z M2180.989,2331.238c-0.576,0-1.074-0.428-1.15-1.013
						c-0.082-0.634,0.369-1.214,1.001-1.296l9.195-1.176c0.721-0.096,1.216,0.372,1.298,1.003c0.082,0.634-0.369,1.214-1.002,1.296
						l-9.195,1.176C2181.084,2331.235,2181.035,2331.238,2180.989,2331.238z M2211.636,2327.316c-0.576,0-1.074-0.428-1.15-1.013
						c-0.083-0.634,0.369-1.214,1.001-1.296l9.195-1.176c0.715-0.087,1.216,0.372,1.298,1.003c0.083,0.634-0.369,1.214-1.001,1.296
						l-9.195,1.176C2211.732,2327.313,2211.682,2327.316,2211.636,2327.316z M2242.287,2323.393c-0.577,0-1.074-0.427-1.15-1.011
						c-0.082-0.634,0.369-1.214,1.001-1.296l9.195-1.176c0.708-0.079,1.219,0.371,1.298,1.003c0.082,0.634-0.369,1.214-1.001,1.296
						l-9.195,1.176C2242.382,2323.391,2242.333,2323.393,2242.287,2323.393z M2272.934,2319.472c-0.576,0-1.074-0.428-1.15-1.013
						c-0.082-0.634,0.369-1.214,1.001-1.296l9.195-1.176c0.702-0.094,1.219,0.372,1.298,1.003c0.082,0.634-0.369,1.214-1.001,1.296
						l-9.195,1.176C2273.03,2319.469,2272.98,2319.472,2272.934,2319.472z M2303.582,2315.552c-0.576,0-1.074-0.428-1.15-1.013
						c-0.082-0.634,0.369-1.214,1.001-1.296l9.195-1.178c0.652-0.086,1.219,0.372,1.298,1.003c0.083,0.634-0.369,1.214-1.001,1.296
						l-9.194,1.177C2303.68,2315.549,2303.628,2315.552,2303.582,2315.552z M2590.791,2315.532c-0.55,0-1.038-0.392-1.14-0.952
						c-0.553-3.029-1.13-6.06-1.73-9.087c-0.125-0.628,0.283-1.237,0.913-1.361c0.633-0.133,1.239,0.285,1.361,0.913
						c0.6,3.037,1.183,6.078,1.736,9.12c0.115,0.629-0.303,1.232-0.932,1.347C2590.929,2315.526,2590.86,2315.532,2590.791,2315.532
						z M2334.229,2311.63c-0.576,0-1.074-0.428-1.15-1.013c-0.082-0.634,0.369-1.214,1.001-1.296l9.195-1.178
						c0.692-0.077,1.216,0.371,1.298,1.003c0.082,0.634-0.369,1.214-1.001,1.296l-9.195,1.178
						C2334.328,2311.627,2334.275,2311.63,2334.229,2311.63z M2364.88,2307.708c-0.577,0-1.074-0.428-1.15-1.013
						c-0.082-0.634,0.369-1.214,1.002-1.296l9.194-1.176c0.728-0.092,1.216,0.372,1.298,1.003c0.082,0.634-0.369,1.214-1.001,1.296
						l-9.195,1.176C2364.975,2307.705,2364.926,2307.708,2364.88,2307.708z M2395.527,2303.784c-0.577,0-1.074-0.427-1.15-1.011
						c-0.082-0.634,0.369-1.214,1.001-1.296l9.195-1.176c0.725-0.084,1.216,0.372,1.298,1.003c0.082,0.634-0.369,1.214-1.001,1.296
						l-9.195,1.176C2395.623,2303.783,2395.573,2303.784,2395.527,2303.784z M2426.175,2299.864c-0.577,0-1.074-0.428-1.15-1.013
						c-0.082-0.634,0.369-1.214,1.001-1.296l9.195-1.176c0.718-0.076,1.216,0.372,1.298,1.003c0.082,0.634-0.369,1.214-1.001,1.296
						l-9.195,1.176C2426.27,2299.861,2426.221,2299.864,2426.175,2299.864z M2456.822,2295.942c-0.576,0-1.074-0.428-1.15-1.013
						c-0.082-0.634,0.369-1.214,1.001-1.296l9.195-1.176c0.715-0.091,1.216,0.372,1.298,1.003c0.082,0.634-0.369,1.214-1.002,1.296
						l-9.194,1.176C2456.918,2295.939,2456.868,2295.942,2456.822,2295.942z M2487.473,2292.021c-0.576,0-1.074-0.428-1.15-1.013
						c-0.082-0.634,0.369-1.214,1.002-1.296l9.191-1.176c0.708-0.082,1.219,0.372,1.298,1.003c0.082,0.634-0.369,1.214-1.001,1.296
						l-9.191,1.176C2487.572,2292.017,2487.519,2292.021,2487.473,2292.021z M2518.12,2288.098c-0.577,0-1.074-0.428-1.15-1.013
						c-0.083-0.634,0.369-1.214,1.001-1.296l9.194-1.176c0.702-0.095,1.219,0.372,1.298,1.003c0.083,0.634-0.369,1.214-1.001,1.296
						l-9.195,1.176C2518.216,2288.095,2518.167,2288.098,2518.12,2288.098z M2584.363,2285.308c-0.521,0-0.995-0.354-1.127-0.883
						c-0.369-1.506-0.744-3.006-1.126-4.505l-2.547,0.326c-0.639,0.091-1.216-0.372-1.298-1.003
						c-0.082-0.634,0.369-1.214,1.001-1.296l4.576-0.586l0.254,0.99c0.478,1.837,0.939,3.677,1.394,5.521
						c0.152,0.623-0.23,1.25-0.85,1.402C2584.548,2285.297,2584.452,2285.308,2584.363,2285.308z M2548.768,2284.177
						c-0.576,0-1.074-0.428-1.15-1.013c-0.082-0.634,0.369-1.214,1.001-1.296l9.195-1.176c0.741-0.087,1.216,0.372,1.298,1.003
						c0.082,0.634-0.369,1.214-1.001,1.296l-9.195,1.176C2548.863,2284.173,2548.814,2284.177,2548.768,2284.177z"/>
					
						<linearGradient id="SVGID_00000101813903716485785070000004371067571240429446_" gradientUnits="userSpaceOnUse" x1="-136.8394" y1="2847.198" x2="-139.9482" y2="2771.8125" gradientTransform="matrix(0.9919 -0.127 0.127 0.9919 1989.9969 -609.5969)">
						<stop  offset="0" style="stop-color:#4F52FF"/>
						<stop  offset="1" style="stop-color:#4042E2"/>
					</linearGradient>
					<path style="fill:url(#SVGID_00000101813903716485785070000004371067571240429446_);" d="M2173.666,2201.682l-0.467-13.68
						c1.013-3.41,3.68-6.073,7.106-7.078c12.811-3.755,44.775-11.564,61.885-1.892l4.343,15.411L2173.666,2201.682z"/>
					
						<linearGradient id="SVGID_00000012453166745064639420000002998373351560769207_" gradientUnits="userSpaceOnUse" x1="-140.7719" y1="2734.0225" x2="-125.2303" y2="2950.0522" gradientTransform="matrix(0.9919 -0.127 0.127 0.9919 1989.9969 -609.5969)">
						<stop  offset="0" style="stop-color:#4F52FF"/>
						<stop  offset="1" style="stop-color:#4042E2"/>
					</linearGradient>
					<path style="fill:url(#SVGID_00000012453166745064639420000002998373351560769207_);" d="M2212.852,2183.447
						c-2.917,1.12-5.934,1.504-9.051,1.148c-3.771-0.43-6.769-3.372-7.249-7.12l-5.417-42.331l21.542-2.757l5.413,42.299
						C2218.574,2178.451,2216.411,2182.081,2212.852,2183.447z"/>
					
						<linearGradient id="SVGID_00000111905432415495738080000003964372557072677301_" gradientUnits="userSpaceOnUse" x1="73.1592" y1="2838.552" x2="70.0506" y2="2763.1675" gradientTransform="matrix(0.9919 -0.127 0.127 0.9919 1989.9969 -609.5969)">
						<stop  offset="0" style="stop-color:#4F52FF"/>
						<stop  offset="1" style="stop-color:#4042E2"/>
					</linearGradient>
					<path style="fill:url(#SVGID_00000111905432415495738080000003964372557072677301_);" d="M2382.319,2174.982l-0.467-13.68
						c1.013-3.41,3.68-6.074,7.107-7.078c12.81-3.755,44.775-11.564,61.884-1.892l4.344,15.411L2382.319,2174.982z"/>
					
						<linearGradient id="SVGID_00000128453792971915206270000007522562202629091988_" gradientUnits="userSpaceOnUse" x1="68.6623" y1="2718.9712" x2="84.2039" y2="2934.9993" gradientTransform="matrix(0.9919 -0.127 0.127 0.9919 1989.9969 -609.5969)">
						<stop  offset="0" style="stop-color:#4F52FF"/>
						<stop  offset="1" style="stop-color:#4042E2"/>
					</linearGradient>
					<path style="fill:url(#SVGID_00000128453792971915206270000007522562202629091988_);" d="M2421.505,2156.747
						c-2.916,1.12-5.934,1.504-9.05,1.147c-3.771-0.431-6.769-3.372-7.249-7.12l-5.987-46.791l21.542-2.757l5.983,46.76
						C2427.227,2151.752,2425.065,2155.381,2421.505,2156.747z"/>
					
						<linearGradient id="SVGID_00000070821589875125152590000001919292785922597530_" gradientUnits="userSpaceOnUse" x1="-17.6005" y1="2613.783" x2="-38.5784" y2="2767.6199" gradientTransform="matrix(0.9919 -0.127 0.127 0.9919 1989.9969 -609.5969)">
						<stop  offset="0" style="stop-color:#4F52FF"/>
						<stop  offset="1" style="stop-color:#4042E2"/>
					</linearGradient>
					<path style="fill:url(#SVGID_00000070821589875125152590000001919292785922597530_);" d="M2190.276,2145.8l230.693-37.314
						c5.26-0.851,9.253-5.235,9.497-10.533c0.342-7.415,0.071-18.416-3.038-29.458c-3.535-12.557-15.761-20.656-28.796-19.302
						c-43.351,4.502-153.371,18.612-210.942,50.359c-6.089,3.358-10.145,9.448-10.913,16.332c-0.735,6.566-0.676,15.2,2.455,23.596
						C2180.896,2143.94,2185.556,2146.563,2190.276,2145.8z"/>
					<path style="fill:#91B3FA;" d="M2184.593,2136.344c-1.403,0-2.675-0.965-3.008-2.392c-0.086-0.377-2.125-9.338-0.88-18.384
						c1.001-7.299,5.854-13.683,12.66-16.661c12.512-5.479,36.534-15.144,56.844-18.323c1.687-0.278,3.265,0.89,3.531,2.575
						c0.264,1.685-0.889,3.266-2.576,3.53c-20.353,3.187-45.469,13.566-55.322,17.88c-4.849,2.123-8.305,6.66-9.017,11.842
						c-1.09,7.931,0.761,16.065,0.781,16.146c0.385,1.662-0.652,3.322-2.313,3.708
						C2185.06,2136.317,2184.823,2136.344,2184.593,2136.344z"/>
					
						<linearGradient id="SVGID_00000152949976004045757720000000786394672630298045_" gradientUnits="userSpaceOnUse" x1="2323.593" y1="2399.2354" x2="2335.4001" y2="2146.228">
						<stop  offset="0" style="stop-color:#4F52FF"/>
						<stop  offset="1" style="stop-color:#4042E2"/>
					</linearGradient>
					<path style="fill:url(#SVGID_00000152949976004045757720000000786394672630298045_);" d="M2065.503,2210.17
						c74.724-10.534,398.071-55.368,493.574-56.056c8.223-0.059,15.589,5.02,18.357,12.724c8.773,24.413,27.422,81.347,33.5,139.371
						c0.826,7.896-4.096,15.278-11.681,17.743l-209.491,68.087l-76.261,9.759l-234.572-16.199
						c-8.268-0.571-15.086-6.639-16.549-14.759c-5.211-28.917-16.274-96.914-14.028-141.881
						C2048.829,2219.406,2055.987,2211.512,2065.503,2210.17z"/>
					<path style="fill:#FFFFFF;" d="M2312.954,2384.226c-0.026,0-0.053,0-0.079-0.002l-9.247-0.639
						c-0.639-0.044-1.12-0.598-1.077-1.237c0.046-0.637,0.603-1.089,1.235-1.076l9.247,0.639c0.639,0.044,1.12,0.598,1.077,1.235
						C2314.068,2383.76,2313.56,2384.226,2312.954,2384.226z M2282.129,2382.098c-0.027,0-0.053,0-0.079-0.002l-9.247-0.639
						c-0.639-0.044-1.12-0.598-1.077-1.237c0.043-0.637,0.593-1.095,1.236-1.075l9.247,0.639c0.639,0.045,1.12,0.598,1.077,1.236
						C2283.242,2381.632,2282.735,2382.098,2282.129,2382.098z M2332.602,2381.711c-0.577,0-1.074-0.427-1.15-1.011
						c-0.082-0.634,0.369-1.214,1.001-1.296l9.195-1.176c0.718-0.092,1.216,0.372,1.298,1.003c0.082,0.634-0.369,1.214-1.001,1.296
						l-9.195,1.176C2332.697,2381.709,2332.648,2381.711,2332.602,2381.711z M2251.303,2379.968c-0.026,0-0.053,0-0.079-0.002
						l-9.247-0.637c-0.639-0.044-1.12-0.598-1.077-1.235c0.043-0.637,0.662-1.104,1.235-1.077l9.247,0.637
						c0.639,0.044,1.12,0.598,1.077,1.235C2252.417,2379.5,2251.91,2379.968,2251.303,2379.968z M2220.481,2377.84
						c-0.026,0-0.053,0-0.079-0.002l-9.247-0.639c-0.639-0.045-1.12-0.598-1.077-1.235c0.046-0.639,0.649-1.109,1.235-1.077
						l9.247,0.639c0.639,0.044,1.12,0.598,1.077,1.237C2221.595,2377.374,2221.087,2377.84,2220.481,2377.84z M2363.249,2377.791
						c-0.576,0-1.074-0.428-1.15-1.013c-0.082-0.634,0.369-1.214,1.001-1.296l9.195-1.176c0.715-0.084,1.216,0.372,1.298,1.003
						c0.082,0.634-0.369,1.214-1.002,1.296l-9.195,1.176C2363.344,2377.787,2363.295,2377.791,2363.249,2377.791z
						 M2189.656,2375.712c-0.026,0-0.053,0-0.079-0.002l-9.247-0.639c-0.639-0.045-1.12-0.598-1.077-1.236
						c0.046-0.639,0.639-1.115,1.235-1.077l9.247,0.639c0.639,0.044,1.12,0.598,1.077,1.237
						C2190.77,2375.246,2190.262,2375.712,2189.656,2375.712z M2158.831,2373.582c-0.026,0-0.053,0-0.079-0.002l-9.247-0.639
						c-0.639-0.044-1.12-0.598-1.077-1.237c0.046-0.637,0.629-1.118,1.236-1.075l9.247,0.639c0.639,0.044,1.12,0.598,1.077,1.236
						C2159.944,2373.116,2159.437,2373.582,2158.831,2373.582z M2393.561,2372.355c-0.488,0-0.942-0.311-1.104-0.802
						c-0.198-0.608,0.138-1.262,0.745-1.459l8.816-2.865c0.6-0.193,1.265,0.135,1.459,0.744c0.201,0.608-0.135,1.262-0.741,1.459
						l-8.816,2.865C2393.801,2372.335,2393.679,2372.355,2393.561,2372.355z M2128.005,2371.454c-0.026,0-0.053,0-0.079-0.002
						l-9.247-0.639c-0.639-0.044-1.12-0.598-1.077-1.235c0.046-0.637,0.619-1.127,1.235-1.077l9.247,0.639
						c0.639,0.044,1.12,0.598,1.077,1.235C2129.119,2370.988,2128.612,2371.454,2128.005,2371.454z M2097.18,2369.324
						c-0.026,0-0.053,0-0.079-0.002l-9.247-0.637c-0.639-0.044-1.12-0.598-1.077-1.235c0.046-0.637,0.609-1.094,1.235-1.077
						l9.247,0.638c0.639,0.044,1.12,0.598,1.077,1.235C2098.293,2368.856,2097.786,2369.324,2097.18,2369.324z M2422.943,2362.805
						c-0.488,0-0.942-0.311-1.104-0.802c-0.198-0.608,0.138-1.262,0.744-1.459l8.816-2.865c0.616-0.193,1.265,0.135,1.459,0.744
						c0.201,0.608-0.135,1.262-0.741,1.459l-8.816,2.865C2423.183,2362.785,2423.062,2362.805,2422.943,2362.805z
						 M2078.195,2354.058c-0.557,0-1.048-0.402-1.143-0.969c-0.481-2.884-0.982-5.95-1.492-9.167
						c-0.102-0.631,0.33-1.226,0.962-1.326c0.613-0.11,1.226,0.333,1.324,0.964c0.511,3.21,1.011,6.269,1.492,9.147
						c0.105,0.631-0.32,1.229-0.952,1.334C2078.32,2354.052,2078.257,2354.058,2078.195,2354.058z M2452.329,2353.254
						c-0.488,0-0.942-0.311-1.104-0.802c-0.198-0.608,0.138-1.262,0.744-1.459l8.816-2.864c0.613-0.195,1.265,0.135,1.459,0.744
						c0.201,0.608-0.135,1.262-0.741,1.459l-8.816,2.864C2452.569,2353.235,2452.447,2353.254,2452.329,2353.254z
						 M2481.714,2343.704c-0.488,0-0.942-0.311-1.1-0.802c-0.201-0.608,0.135-1.262,0.741-1.459l8.816-2.865
						c0.61-0.191,1.262,0.135,1.463,0.745c0.198,0.608-0.138,1.262-0.744,1.459l-8.816,2.865
						C2481.955,2343.684,2481.833,2343.704,2481.714,2343.704z M2511.1,2334.154c-0.488,0-0.942-0.311-1.1-0.802
						c-0.201-0.608,0.135-1.262,0.741-1.459l8.816-2.865c0.606-0.193,1.262,0.133,1.463,0.745c0.198,0.608-0.138,1.261-0.744,1.459
						l-8.816,2.865C2511.341,2334.134,2511.219,2334.154,2511.1,2334.154z M2540.486,2324.603c-0.487,0-0.942-0.311-1.1-0.802
						c-0.201-0.608,0.135-1.262,0.741-1.459l8.816-2.866c0.603-0.191,1.262,0.135,1.459,0.743c0.201,0.609-0.135,1.263-0.741,1.461
						l-8.816,2.866C2540.726,2324.583,2540.604,2324.603,2540.486,2324.603z M2073.503,2323.495c-0.57,0-1.067-0.42-1.146-1
						c-0.418-3.013-0.837-6.085-1.245-9.203c-0.083-0.634,0.365-1.216,0.998-1.298c0.642-0.105,1.219,0.362,1.301,0.998
						c0.408,3.112,0.82,6.177,1.239,9.183c0.089,0.634-0.353,1.219-0.988,1.308
						C2073.609,2323.49,2073.556,2323.495,2073.503,2323.495z M2569.868,2315.053c-0.488,0-0.942-0.311-1.1-0.802
						c-0.201-0.608,0.135-1.262,0.741-1.459l8.816-2.866c0.603-0.193,1.262,0.133,1.459,0.744c0.201,0.608-0.135,1.262-0.741,1.459
						l-8.816,2.866C2570.109,2315.033,2569.987,2315.053,2569.868,2315.053z M2591.357,2300.446c-0.576,0-1.074-0.427-1.15-1.011
						c-0.395-3.062-0.817-6.118-1.272-9.162c-0.092-0.634,0.343-1.224,0.975-1.318c0.666-0.087,1.222,0.344,1.318,0.975
						c0.455,3.06,0.883,6.132,1.278,9.208c0.082,0.634-0.366,1.216-1.001,1.298
						C2591.456,2300.442,2591.407,2300.446,2591.357,2300.446z M2069.725,2292.813c-0.586,0-1.09-0.442-1.153-1.036
						c-0.323-3.077-0.626-6.164-0.909-9.246c-0.059-0.637,0.408-1.202,1.048-1.26c0.659-0.056,1.196,0.413,1.258,1.048
						c0.283,3.072,0.586,6.147,0.909,9.214c0.066,0.638-0.396,1.208-1.031,1.275
						C2069.804,2292.811,2069.764,2292.813,2069.725,2292.813z M2586.409,2269.94c-0.544,0-1.031-0.385-1.136-0.939
						c-0.593-3.051-1.206-6.075-1.842-9.068c-0.132-0.626,0.267-1.242,0.893-1.374c0.639-0.132,1.242,0.267,1.374,0.893
						c0.636,3.006,1.255,6.043,1.848,9.107c0.122,0.628-0.287,1.237-0.916,1.359
						C2586.554,2269.932,2586.482,2269.94,2586.409,2269.94z M2067.238,2261.997c-0.613,0-1.123-0.479-1.156-1.097
						c-0.165-3.141-0.293-6.243-0.392-9.292c-0.02-0.639,0.484-1.174,1.123-1.194c0.55-0.03,1.176,0.481,1.196,1.122
						c0.092,3.032,0.221,6.118,0.385,9.242c0.033,0.639-0.458,1.184-1.097,1.217
						C2067.277,2261.997,2067.257,2261.997,2067.238,2261.997z M2579.698,2239.77c-0.521,0-0.992-0.353-1.123-0.88
						c-0.761-3.047-1.529-6.039-2.303-8.967c-0.165-0.618,0.204-1.252,0.823-1.415c0.636-0.168,1.252,0.208,1.417,0.825
						c0.774,2.939,1.548,5.94,2.31,8.997c0.155,0.621-0.221,1.25-0.844,1.405C2579.886,2239.759,2579.791,2239.77,2579.698,2239.77z
						 M2066.971,2231.17L2066.971,2231.17c-0.639,0-1.153-0.586-1.153-1.226c0-0.064,0.01-0.179,0.02-0.244
						c0.04-1.074,0.913-2.041,2.105-2.21l7.323-1.031c0.665-0.086,1.219,0.354,1.308,0.987c0.089,0.634-0.353,1.22-0.985,1.31
						l-7.323,1.098l-0.142,0.229C2068.121,2230.72,2067.61,2231.17,2066.971,2231.17z M2096.857,2225.774
						c-0.57,0-1.067-0.42-1.146-1c-0.089-0.634,0.353-1.219,0.989-1.308l9.188-1.272c0.633-0.082,1.219,0.356,1.305,0.99
						c0.089,0.634-0.356,1.219-0.988,1.306l-9.188,1.271C2096.963,2225.769,2096.91,2225.774,2096.857,2225.774z M2127.482,2221.557
						c-0.57,0-1.067-0.422-1.146-1.001c-0.089-0.634,0.356-1.219,0.988-1.306l9.191-1.255c0.659-0.082,1.212,0.359,1.301,0.992
						c0.089,0.634-0.356,1.219-0.991,1.304l-9.185,1.255C2127.587,2221.552,2127.531,2221.557,2127.482,2221.557z
						 M2158.113,2217.393c-0.573,0-1.071-0.423-1.15-1.005c-0.086-0.634,0.362-1.217,0.995-1.303l9.188-1.239
						c0.662-0.085,1.219,0.361,1.304,0.993c0.086,0.634-0.359,1.217-0.995,1.303l-9.188,1.239
						C2158.215,2217.388,2158.162,2217.393,2158.113,2217.393z M2188.747,2213.292c-0.573,0-1.071-0.425-1.15-1.006
						c-0.083-0.634,0.362-1.217,0.998-1.302l9.191-1.22c0.613-0.091,1.212,0.364,1.301,0.997c0.082,0.634-0.363,1.216-0.998,1.3
						l-9.191,1.221C2188.849,2213.287,2188.796,2213.292,2188.747,2213.292z M2571.542,2209.955c-0.501,0-0.959-0.326-1.11-0.829
						c-0.919-3.073-1.818-6.03-2.701-8.858c-0.191-0.61,0.152-1.26,0.761-1.451c0.609-0.181,1.261,0.15,1.453,0.763
						c0.883,2.835,1.789,5.801,2.708,8.885c0.184,0.613-0.165,1.259-0.777,1.441
						C2571.762,2209.938,2571.65,2209.955,2571.542,2209.955z M2219.388,2209.25c-0.573,0-1.074-0.425-1.15-1.01
						c-0.082-0.634,0.366-1.216,0.998-1.298l9.195-1.202c0.603-0.092,1.216,0.365,1.298,1c0.082,0.634-0.366,1.216-0.998,1.3
						l-9.191,1.199C2219.487,2209.246,2219.437,2209.25,2219.388,2209.25z M2250.042,2205.271c-0.577,0-1.074-0.425-1.15-1.01
						c-0.083-0.636,0.365-1.216,1.001-1.298l9.198-1.178c0.688-0.079,1.212,0.371,1.295,1.003c0.079,0.636-0.369,1.216-1.005,1.296
						l-9.191,1.178C2250.14,2205.27,2250.088,2205.271,2250.042,2205.271z M2280.696,2201.375c-0.577,0-1.077-0.428-1.15-1.015
						c-0.079-0.636,0.369-1.214,1.005-1.295l9.195-1.155c0.675-0.096,1.216,0.372,1.295,1.006c0.079,0.634-0.372,1.214-1.005,1.293
						l-9.194,1.155C2280.791,2201.371,2280.742,2201.375,2280.696,2201.375z M2311.36,2197.555c-0.58,0-1.077-0.432-1.15-1.018
						c-0.079-0.636,0.372-1.214,1.008-1.292l9.201-1.128c0.692-0.097,1.216,0.374,1.291,1.01c0.079,0.634-0.372,1.212-1.008,1.29
						l-9.201,1.128C2311.452,2197.551,2311.406,2197.555,2311.36,2197.555z M2342.03,2193.832c-0.58,0-1.08-0.433-1.15-1.021
						c-0.076-0.636,0.375-1.212,1.011-1.288l9.208-1.099c0.672-0.087,1.209,0.381,1.285,1.015c0.076,0.636-0.379,1.212-1.015,1.288
						l-9.201,1.095C2342.122,2193.829,2342.073,2193.832,2342.03,2193.832z M2372.72,2190.218c-0.583,0-1.084-0.435-1.15-1.024
						c-0.076-0.636,0.382-1.211,1.018-1.285l9.208-1.059c0.669-0.058,1.209,0.385,1.281,1.02c0.076,0.636-0.382,1.211-1.018,1.283
						l-9.208,1.059C2372.809,2190.216,2372.763,2190.218,2372.72,2190.218z M2403.42,2186.741c-0.583,0-1.087-0.438-1.153-1.031
						c-0.069-0.636,0.389-1.208,1.024-1.278l9.218-1.013c0.692-0.077,1.209,0.392,1.278,1.026c0.069,0.636-0.392,1.208-1.028,1.277
						l-9.211,1.013C2403.506,2186.739,2403.46,2186.741,2403.42,2186.741z M2434.147,2183.432c-0.586,0-1.09-0.441-1.153-1.038
						c-0.066-0.636,0.396-1.206,1.031-1.273l9.224-0.954c0.616-0.048,1.206,0.398,1.271,1.034c0.066,0.637-0.399,1.206-1.034,1.271
						l-9.218,0.954C2434.226,2183.43,2434.187,2183.432,2434.147,2183.432z M2562.077,2180.521c-0.481,0-0.929-0.302-1.094-0.781
						c-0.741-2.141-1.43-4.085-2.049-5.816l-1.568,0.017c-0.007,0-0.013,0-0.016,0c-0.633,0-1.15-0.507-1.16-1.143
						c-0.007-0.639,0.504-1.165,1.143-1.173l1.868-0.02c0.814,0,1.519,0.456,1.769,1.136c0.662,1.843,1.403,3.928,2.2,6.241
						c0.211,0.606-0.112,1.265-0.715,1.474C2562.331,2180.5,2562.202,2180.521,2562.077,2180.521z M2464.89,2180.34
						c-0.593,0-1.097-0.448-1.153-1.048c-0.063-0.636,0.405-1.202,1.041-1.263c3.139-0.301,6.216-0.593,9.231-0.873
						c0.712-0.064,1.202,0.412,1.262,1.046c0.059,0.637-0.408,1.201-1.044,1.26c-3.014,0.28-6.091,0.572-9.224,0.873
						C2464.962,2180.338,2464.926,2180.34,2464.89,2180.34z M2495.663,2177.559c-0.596,0-1.104-0.456-1.153-1.061
						c-0.056-0.638,0.418-1.198,1.058-1.252c3.163-0.265,6.246-0.516,9.244-0.753c0.702-0.064,1.196,0.427,1.249,1.064
						c0.05,0.637-0.428,1.196-1.064,1.245c-2.998,0.237-6.075,0.488-9.237,0.753
						C2495.725,2177.559,2495.692,2177.559,2495.663,2177.559z M2526.481,2175.26c-0.61,0-1.117-0.471-1.156-1.085
						c-0.04-0.637,0.445-1.189,1.084-1.229c3.219-0.203,6.309-0.382,9.264-0.542c0.636-0.048,1.183,0.456,1.219,1.094
						c0.036,0.639-0.455,1.184-1.094,1.219c-2.948,0.16-6.032,0.339-9.244,0.542
						C2526.531,2175.26,2526.504,2175.26,2526.481,2175.26z"/>
					
						<linearGradient id="SVGID_00000003801386824257237150000017811413181328885183_" gradientUnits="userSpaceOnUse" x1="2284.2854" y1="2379.531" x2="2401.9065" y2="2379.531">
						<stop  offset="0" style="stop-color:#09005D"/>
						<stop  offset="1" style="stop-color:#1A0F91"/>
					</linearGradient>
					<path style="fill:url(#SVGID_00000003801386824257237150000017811413181328885183_);" d="M2386.679,2424.977l-66.81,8.549
						c-8.756,1.12-16.962-4.45-19.108-12.97l-15.946-63.302c-2.54-10.083,4.342-20.121,14.703-21.447l80.262-10.27
						c10.152-1.299,19.228,6.346,19.618,16.526l2.495,65.023C2402.238,2416.067,2395.635,2423.831,2386.679,2424.977z"/>
					
						<linearGradient id="SVGID_00000033350917027946745160000006296245603890535552_" gradientUnits="userSpaceOnUse" x1="2299.0154" y1="2379.6147" x2="2388.5378" y2="2379.6147">
						<stop  offset="0" style="stop-color:#4F52FF"/>
						<stop  offset="1" style="stop-color:#4042E2"/>
					</linearGradient>
					<path style="fill:url(#SVGID_00000033350917027946745160000006296245603890535552_);" d="M2376.948,2414.204l-50.85,6.507
						c-6.664,0.852-12.91-3.387-14.544-9.872l-12.136-48.18c-1.933-7.675,3.305-15.314,11.192-16.324l61.088-7.817
						c7.727-0.988,14.635,4.83,14.932,12.578l1.899,49.49C2388.79,2407.422,2383.765,2413.332,2376.948,2414.204z"/>
				</g>
				
					<linearGradient id="SVGID_00000142898588735053854780000013291848502374759832_" gradientUnits="userSpaceOnUse" x1="2397.3359" y1="1938.2844" x2="2226.6511" y2="2266.5249">
					<stop  offset="0" style="stop-color:#FEBBBA"/>
					<stop  offset="1" style="stop-color:#FF928E"/>
				</linearGradient>
				<path style="fill:url(#SVGID_00000142898588735053854780000013291848502374759832_);" d="M2337.209,1901.882
					c15.761,65.117,16.177,128.82,13.78,152.015c-0.905,8.745-7.933,15.573-16.703,16.187c-9.962,0.698-23.52,1.612-35.637,2.31
					c-13.319,0.768-28.101-7.65-37.987-14.686c-5.046-3.592-11.575,2.001-8.756,7.517c4.855,9.501,13.291,16.984,21.663,23.345
					c5.037,3.827,21.776,10.625,20.607,18.161c-0.369,2.377-1.801,4.447-3.341,6.294c-9.303,11.162-23.376,17.123-37.267,21.387
					c-1.743,0.535-3.583,1.105-4.81,2.453c-0.345,8.983,27.286,18.962,34.418,21.329c10.685,3.547,22.016,5.049,33.236,3.867
					c27.804-2.928,53.48-22.119,68.455-45.257c40.033-61.858,60.73-136.554,68.292-193.681
					C2415.92,1885.895,2359.698,1895.332,2337.209,1901.882z"/>
				<g>
					
						<linearGradient id="SVGID_00000181083979613043848950000016687426023082215582_" gradientUnits="userSpaceOnUse" x1="2643.7092" y1="1381.8047" x2="2154.562" y2="2019.382">
						<stop  offset="0" style="stop-color:#FF928E"/>
						<stop  offset="1" style="stop-color:#FE7062"/>
					</linearGradient>
					<path style="fill:url(#SVGID_00000181083979613043848950000016687426023082215582_);" d="M2453.16,1929.005
						c29.7-224.349-143.192-396.858-143.192-396.858l-102.865,119.921c78.097,97.344,115.221,186.545,132.179,256.606
						C2361.771,1902.125,2415.92,1891.777,2453.16,1929.005z"/>
					
						<linearGradient id="SVGID_00000020389346059333650540000007784196380723361723_" gradientUnits="userSpaceOnUse" x1="2578.6362" y1="1317.8735" x2="2006.8689" y2="2162.8755">
						<stop  offset="0" style="stop-color:#E1473D"/>
						<stop  offset="1" style="stop-color:#E9605A"/>
					</linearGradient>
					<path style="fill:url(#SVGID_00000020389346059333650540000007784196380723361723_);" d="M2336.827,1907.576
						c-2.871,0-5.481-1.953-6.187-4.871c-20.902-86.365-64.965-171.865-130.953-254.117c-2.202-2.744-1.764-6.756,0.979-8.958
						c2.74-2.196,6.756-1.76,8.955,0.983c67.17,83.727,112.054,170.901,133.404,259.095c0.827,3.422-1.275,6.862-4.693,7.689
						C2337.829,1907.52,2337.325,1907.576,2336.827,1907.576z"/>
				</g>
			</g>
			<g>
				<g>
					
						<linearGradient id="SVGID_00000024718907029392382560000011010450352490766255_" gradientUnits="userSpaceOnUse" x1="-493.3038" y1="3185.2715" x2="-346.4171" y2="3185.2715" gradientTransform="matrix(1 0 0 1 1290.1023 0)">
						<stop  offset="0" style="stop-color:#09005D"/>
						<stop  offset="1" style="stop-color:#1A0F91"/>
					</linearGradient>
					<path style="fill:url(#SVGID_00000024718907029392382560000011010450352490766255_);" d="M943.683,3237.572
						c0.017-1.094-0.056-2.202-0.336-3.318c-16.543-65.59-98.655-106.442-98.655-106.442l-32.538,2.55
						c-18.708,57.81-16.304,93.264-13.3,109.056c0.083,0.443,0.218,0.864,0.335,1.292
						C826.029,3243.11,881.274,3244.676,943.683,3237.572z"/>
					
						<linearGradient id="SVGID_00000090267329330740539520000011261363491287824574_" gradientUnits="userSpaceOnUse" x1="-125.5805" y1="3011.9866" x2="-659.9589" y2="3431.582" gradientTransform="matrix(1 0 0 1 1290.1023 0)">
						<stop  offset="0" style="stop-color:#4F52FF"/>
						<stop  offset="1" style="stop-color:#4042E2"/>
					</linearGradient>
					<path style="fill:url(#SVGID_00000090267329330740539520000011261363491287824574_);" d="M799.189,3240.711
						c1.45,5.274,5.342,9.38,10.325,10.428c38.181,8.029,98.866,1.568,124.345-1.763c5.622-0.735,9.731-5.934,9.824-11.803
						C881.274,3244.676,826.029,3243.11,799.189,3240.711z"/>
					
						<linearGradient id="SVGID_00000093896707817075326670000006163895757724194207_" gradientUnits="userSpaceOnUse" x1="-452.4561" y1="3018.0476" x2="-480.5139" y2="3262.917" gradientTransform="matrix(1 0 0 1 1290.1023 0)">
						<stop  offset="0" style="stop-color:#FEBBBA"/>
						<stop  offset="1" style="stop-color:#FF928E"/>
					</linearGradient>
					<path style="fill:url(#SVGID_00000093896707817075326670000006163895757724194207_);" d="M799.07,3081.9l13.781,66.341
						c1.009,4.861,4.745,8.501,9.269,8.926c5.538,0.52,13.421,0.825,21.35-0.34c7.109-1.044,12.06-8.269,10.8-16.022l-9.579-58.905
						H799.07z"/>
					
						<linearGradient id="SVGID_00000064348441281128712730000005876946206664676761_" gradientUnits="userSpaceOnUse" x1="-30.651" y1="3132.7104" x2="-565.0305" y2="3552.3066" gradientTransform="matrix(1 0 0 1 1290.1023 0)">
						<stop  offset="0" style="stop-color:#4F52FF"/>
						<stop  offset="1" style="stop-color:#4042E2"/>
					</linearGradient>
					<path style="fill:url(#SVGID_00000064348441281128712730000005876946206664676761_);" d="M1084.599,3239.872
						c-35.936-1.006-54.523-5.238-64.132-9.165c-0.022,3.573-0.002,7.209,0.114,10.977c0.124,4.024,3.104,7.238,6.771,7.215
						l197.309-1.274c6.297-0.041,9.976-7.343,7.247-13.118C1206.039,3236.644,1140.15,3241.426,1084.599,3239.872z"/>
					
						<linearGradient id="SVGID_00000108272648840562462960000006735289760914884542_" gradientUnits="userSpaceOnUse" x1="-269.6345" y1="3189.0049" x2="-58.1929" y2="3189.0049" gradientTransform="matrix(1 0 0 1 1290.1023 0)">
						<stop  offset="0" style="stop-color:#09005D"/>
						<stop  offset="1" style="stop-color:#1A0F91"/>
					</linearGradient>
					<path style="fill:url(#SVGID_00000108272648840562462960000006735289760914884542_);" d="M1231.909,3234.507
						c-0.238-0.502-0.442-1.014-0.781-1.487c-17.425-24.348-61.805-72.831-149.503-93.859l-42.07-1.328
						c0,0-18.734,32.56-19.087,92.874c9.609,3.927,28.196,8.159,64.132,9.165C1140.15,3241.426,1206.039,3236.644,1231.909,3234.507
						z"/>
					
						<linearGradient id="SVGID_00000147211256339961559320000015157800393385192584_" gradientUnits="userSpaceOnUse" x1="-118.307" y1="2976.6567" x2="-146.3652" y2="3221.5303" gradientTransform="matrix(0.998 -0.0629 0.0629 0.998 993.2088 65.7657)">
						<stop  offset="0" style="stop-color:#FEBBBA"/>
						<stop  offset="1" style="stop-color:#FF928E"/>
					</linearGradient>
					<path style="fill:url(#SVGID_00000147211256339961559320000015157800393385192584_);" d="M1029.88,3076.03
						c0.664,3.101,9.418,50.305,12.808,68.608c0.806,4.349,4.194,7.54,8.227,7.765c7.203,0.404,18.822,0.452,28.813-2.261
						c5.39-1.464,9.011-6.959,8.627-13.058l-4.707-74.667L1029.88,3076.03z"/>
					
						<linearGradient id="SVGID_00000064344787988308023390000004020754741838068159_" gradientUnits="userSpaceOnUse" x1="947.1257" y1="2919.5645" x2="791.9476" y2="2069.4612">
						<stop  offset="0" style="stop-color:#09005D"/>
						<stop  offset="1" style="stop-color:#1A0F91"/>
					</linearGradient>
					<path style="fill:url(#SVGID_00000064344787988308023390000004020754741838068159_);" d="M998.001,2204.446
						c0,0,57.873,397.676,99.637,870.904c0.778,8.814-6.246,16.484-14.902,18.307c-12.759,2.688-31.513,5.878-47.039,5.443
						c-8.288-0.232-15.217-6.378-16.611-14.552c-14.227-83.437-115.753-531.237-142.4-629.793c0,0-30.608,418.643-20.824,635.838
						c0.244,5.4-3.711,10.086-9.081,10.706c-8.146,0.941-21.179,1.656-37.764-0.105c-6.296-0.668-11.374-5.427-12.274-11.695
						c-10.135-70.615-68.466-490.944-65.986-793.733c0.141-17.075,20.034-157.369,20.034-157.369L998.001,2204.446z"/>
				</g>
				
					<linearGradient id="SVGID_00000132085273926162440410000000080449319688348299_" gradientUnits="userSpaceOnUse" x1="288.5885" y1="2456.1431" x2="1307.3618" y2="1545.3187">
					<stop  offset="0" style="stop-color:#4F52FF"/>
					<stop  offset="1" style="stop-color:#4042E2"/>
				</linearGradient>
				<path style="fill:url(#SVGID_00000132085273926162440410000000080449319688348299_);" d="M742.093,2227.367
					c-5.95-2.115-10.098-7.509-10.746-13.791c-7.696-74.665-44.959-537.617,190.291-728.057c0,0,13.491-35.298,124.382,51.469
					c110.891,86.765,51.52,177.711,24.972,303.151c-32.126,151.792-88.495,275.868-63.555,369.278
					c1.721,6.446-1.668,13.215-7.928,15.522C913.368,2256.688,827.559,2257.738,742.093,2227.367z"/>
				
					<linearGradient id="SVGID_00000000213226249765037880000006284487708262918572_" gradientUnits="userSpaceOnUse" x1="-340.5229" y1="1590.8394" x2="-275.3581" y2="1412.8892" gradientTransform="matrix(1 0 0 1 1290.1023 0)">
					<stop  offset="0" style="stop-color:#FEBBBA"/>
					<stop  offset="1" style="stop-color:#FF928E"/>
				</linearGradient>
				<path style="fill:url(#SVGID_00000000213226249765037880000006284487708262918572_);" d="M1013.402,1346.81
					c-0.074,6.588-94.011,140.014-94.011,140.014s16.861,33.208,97.356,60.169l69.483-142.86L1013.402,1346.81z"/>
				<g>
					
						<linearGradient id="SVGID_00000043428141773968328120000018203720963775350716_" gradientUnits="userSpaceOnUse" x1="1116.8994" y1="1511.3988" x2="985.3353" y2="1238.151">
						<stop  offset="0" style="stop-color:#FEBBBA"/>
						<stop  offset="1" style="stop-color:#FF928E"/>
					</linearGradient>
					<path style="fill:url(#SVGID_00000043428141773968328120000018203720963775350716_);" d="M1087.362,1270.353
						c0,0,33.425,76.783,35.67,117.083c2.245,40.3,10.928,66.45-35.67,74.566c-46.598,8.115-85.853-15.098-107.118-55.242
						c0,0-33.32-61.857-25.846-87.189C961.872,1294.238,1087.362,1270.353,1087.362,1270.353z"/>
					
						<linearGradient id="SVGID_00000150080431039292086910000008707350840713482392_" gradientUnits="userSpaceOnUse" x1="892.8256" y1="1150.6576" x2="1053.9413" y2="1339.3619">
						<stop  offset="0" style="stop-color:#09005D"/>
						<stop  offset="1" style="stop-color:#1A0F91"/>
					</linearGradient>
					<path style="fill:url(#SVGID_00000150080431039292086910000008707350840713482392_);" d="M996.166,1377.897l2.653-1.169
						c3.377-1.489,4.822-5.508,3.126-8.786c-6.57-12.696-19.381-41.79-2.832-48.577c21.326-8.747,105.804-25.974,124.031-55.949
						c17.518-28.808,1.996-65.997-21.33-76.574c-1.561-0.708-3.402-0.146-4.202,1.37l-1.944,3.678
						c-1.331,2.518-5.05,2.136-5.842-0.6l0,0c-0.76-2.626-4.253-3.135-5.702-0.817c-5.603,8.968-20.728,23.508-61.177,30.972
						c-57.487,10.61-95.494,33.874-96.44,73.598c-0.06,2.523-2.745,3.926-4.901,2.613c-4.244-2.587-11.037-3.801-20.114,3.833
						c-15.788,13.275-9.327,47.711,25.282,76.037c1.644,1.346,1.631,3.913-0.149,5.071c-6.274,4.084-15.628,13.802,8.608,26.758
						c25.068,13.4,43.786,12.301,50.995,11.111c1.793-0.296,2.948-2.032,2.557-3.807l-7.693-34.914
						c-0.436-1.976,1.069-3.848,3.092-3.848H996.166z"/>
					
						<linearGradient id="SVGID_00000016055377190229481240000015843778551981961894_" gradientUnits="userSpaceOnUse" x1="1056.2378" y1="1540.6062" x2="924.674" y2="1267.3589">
						<stop  offset="0" style="stop-color:#FEBBBA"/>
						<stop  offset="1" style="stop-color:#FF928E"/>
					</linearGradient>
					<path style="fill:url(#SVGID_00000016055377190229481240000015843778551981961894_);" d="M997.614,1385.265
						c0,0-12.751-49.048-34.741-35.296c-21.99,13.752,11.411,54.956,29.09,56.791L997.614,1385.265z"/>
				</g>
				<g>
					
						<linearGradient id="SVGID_00000080922551960365984110000007455173825288195471_" gradientUnits="userSpaceOnUse" x1="1944.2267" y1="830.7567" x2="1412.9385" y2="1367.104">
						<stop  offset="0" style="stop-color:#4F52FF"/>
						<stop  offset="1" style="stop-color:#4042E2"/>
					</linearGradient>
					<path style="fill:url(#SVGID_00000080922551960365984110000007455173825288195471_);" d="M1081.693,1577.252l6.477,173.945
						c18.396,6.331,35.91,11.255,52.587,14.932c10.432-33.585,33.402-74.806,52.211-105.454
						C1123.861,1636.246,1081.693,1577.252,1081.693,1577.252z"/>
					
						<linearGradient id="SVGID_00000053532045660222660640000000931046453814329254_" gradientUnits="userSpaceOnUse" x1="1320.5559" y1="1415.9738" x2="1263.2083" y2="2056.9236">
						<stop  offset="0" style="stop-color:#FEBBBA"/>
						<stop  offset="1" style="stop-color:#FF928E"/>
					</linearGradient>
					<path style="fill:url(#SVGID_00000053532045660222660640000000931046453814329254_);" d="M1426.718,1574.293
						c-94.798,102.351-171.527,108.376-233.75,86.381c-18.809,30.649-41.779,71.87-52.211,105.454
						c253.155,55.812,312.769-176.917,312.769-176.917L1426.718,1574.293z"/>
					
						<linearGradient id="SVGID_00000047773724897202046330000015382571482690742675_" gradientUnits="userSpaceOnUse" x1="1685.0527" y1="1363.1648" x2="1544.8357" y2="1509.6138">
						<stop  offset="0" style="stop-color:#FEBBBA"/>
						<stop  offset="1" style="stop-color:#FF928E"/>
					</linearGradient>
					<path style="fill:url(#SVGID_00000047773724897202046330000015382571482690742675_);" d="M1445.943,1563.422
						c0,0,10.92-11.726,31.13-8.041s38.2,10.707,50.792,0c12.593-10.707,17.019,3.662,17.019,3.662l-37.707,28.665
						L1445.943,1563.422z"/>
					
						<linearGradient id="SVGID_00000109719160641786049330000007237623999729555345_" gradientUnits="userSpaceOnUse" x1="1529.7599" y1="1434.6919" x2="1472.4125" y2="2075.6404">
						<stop  offset="0" style="stop-color:#FEBBBA"/>
						<stop  offset="1" style="stop-color:#FF928E"/>
					</linearGradient>
					<path style="fill:url(#SVGID_00000109719160641786049330000007237623999729555345_);" d="M1423.39,1583.469
						c0,0,7.483-31.286,30.031-26.998c22.548,4.288,73.738,32.126,86.931,26.998c13.192-5.128,30.062-17.403,38.717-13.064
						l-15.244,18.953c0,0,39.19-22.609,45.936-8.717l-65.211,36.697C1544.55,1617.337,1449.144,1607.785,1423.39,1583.469z"/>
				</g>
				
					<linearGradient id="SVGID_00000170996839663113011070000015657169972713895818_" gradientUnits="userSpaceOnUse" x1="1347.0657" y1="1807.797" x2="783.7056" y2="1821.2908">
					<stop  offset="0" style="stop-color:#FEBBBA"/>
					<stop  offset="1" style="stop-color:#FF928E"/>
				</linearGradient>
				<path style="fill:url(#SVGID_00000170996839663113011070000015657169972713895818_);" d="M976.46,1804.911
					c0,0,178.224,149.263,370.676,84.133c11.936-4.04,24.988-3.162,36.132,2.722l55.328,29.222
					c23.223,12.264,51.982,4.213,65.458-18.328c7.686-12.858,14.246-27.544,15.551-41.614l-108.262-43.827l7.982-13.275
					c0,0-52.858-4.478-66.693,33.405c0,0-100.679,41.877-270.469-144.878C1082.162,1692.469,1005.114,1757.983,976.46,1804.911z"/>
				
					<linearGradient id="SVGID_00000173872652933209831990000014208888451968132762_" gradientUnits="userSpaceOnUse" x1="2481.6213" y1="573.2676" x2="1496.5823" y2="1301.9269">
					<stop  offset="0" style="stop-color:#09005D"/>
					<stop  offset="1" style="stop-color:#1A0F91"/>
				</linearGradient>
				<path style="fill:url(#SVGID_00000173872652933209831990000014208888451968132762_);" d="M966.867,1803.366
					c-0.587,0-1.183-0.167-1.704-0.524c-75.043-50.702-110.345-132.538-110.694-133.361c-0.656-1.556,0.068-3.343,1.617-3.998
					c1.555-0.661,3.34,0.06,4.001,1.615c0.34,0.805,34.987,81.025,108.49,130.691c1.397,0.942,1.764,2.836,0.819,4.237
					C968.809,1802.895,967.846,1803.366,966.867,1803.366z"/>
				
					<linearGradient id="SVGID_00000021831484919428696520000003568199130748638119_" gradientUnits="userSpaceOnUse" x1="2447.5552" y1="527.209" x2="1462.517" y2="1255.8676">
					<stop  offset="0" style="stop-color:#09005D"/>
					<stop  offset="1" style="stop-color:#1A0F91"/>
				</linearGradient>
				<path style="fill:url(#SVGID_00000021831484919428696520000003568199130748638119_);" d="M1078.645,1689.938
					c-1.001,0-1.984-0.495-2.568-1.401c-0.227-0.351-23.153-36.037-66.818-114.227c-13.428-24.043-31.075-39.268-52.451-45.251
					c-35.4-9.891-69.516,9.088-69.853,9.278c-1.468,0.811-3.325,0.322-4.159-1.144c-0.831-1.466-0.322-3.325,1.144-4.159
					c1.472-0.834,36.562-20.468,74.456-9.861c23.025,6.423,41.932,22.626,56.19,48.158c43.556,77.993,66.395,113.554,66.621,113.905
					c0.912,1.412,0.504,3.301-0.912,4.214C1079.782,1689.782,1079.211,1689.938,1078.645,1689.938z"/>
			</g>
		</g>
	</g>
</g>
</svg>
