<?xml version="1.0" encoding="utf-8"?>
<!-- Generator: Adobe Illustrator 27.5.0, SVG Export Plug-In . SVG Version: 6.00 Build 0)  -->
<svg version="1.1" xmlns="http://www.w3.org/2000/svg" xmlns:xlink="http://www.w3.org/1999/xlink" x="0px" y="0px"
	 viewBox="0 0 3710 3710" style="enable-background:new 0 0 3710 3710;" xml:space="preserve">
<g id="Background">
	<g>
		<g>
			<rect style="fill:#FFFFFF;" width="3710" height="3710"/>
		</g>
	</g>
</g>
<g id="Illustration">
	<g>
		<path style="fill:#F4F7FA;" d="M1125.069,623.292c-94.431,135.184,16.292,354.351-123.828,456.021
			c-136.397,98.968-303.956-63.254-432.501,21.938c-190.69,126.376-155.866,704.649,122.932,1063.941
			c83.844,108.051,153.901,150.093,184.928,272.294c66.626,262.397-167.53,418.487-122.97,548.264
			c100.332,292.211,1643.366,537.41,2262.5-340.78c289.161-410.151,332.426-1002.413,74.069-1452.238
			C2623.354,379.902,1336.958,319.963,1125.069,623.292z"/>
		<g>
			<linearGradient id="SVGID_1_" gradientUnits="userSpaceOnUse" x1="2618.9302" y1="37.9392" x2="494.4099" y2="4286.9707">
				<stop  offset="0.0036" style="stop-color:#E38DDD"/>
				<stop  offset="1" style="stop-color:#9571F6"/>
			</linearGradient>
			<path style="fill:url(#SVGID_1_);" d="M2875.879,536.118L915.548,471.7c-65.736-2.16-119.25,49.696-119.25,115.833v1910.633
				c0,66.137,53.514,117.467,119.25,114.66l1960.333-83.708c56.701-2.421,102.487-53.88,102.487-114.944V650.055
				C2978.368,588.99,2932.581,537.981,2875.879,536.118z"/>
			<path style="opacity:0.74;fill:#FFFFFF;" d="M915.548,2574.749c-44.714,1.849-81.065-33.094-81.065-78.053V588.628
				c0-44.959,36.351-80.26,81.064-78.85l1960.333,61.785c38.623,1.217,69.851,35.94,69.851,77.559V2415.43
				c0,41.619-31.227,76.649-69.85,78.246L915.548,2574.749z"/>
			
				<linearGradient id="SVGID_00000003785353364776196490000014544090241494613921_" gradientUnits="userSpaceOnUse" x1="1700.0702" y1="-94.7581" x2="2069.2131" y2="1381.8185">
				<stop  offset="0.0036" style="stop-color:#E38DDD"/>
				<stop  offset="1" style="stop-color:#9571F6"/>
			</linearGradient>
			<path style="fill:url(#SVGID_00000003785353364776196490000014544090241494613921_);" d="M2875.88,536.118L915.548,471.7
				c-65.736-2.16-119.251,49.696-119.251,115.833v85.903l2182.072,55.935v-79.316C2978.369,588.99,2932.583,537.981,2875.88,536.118
				z"/>
			<path style="fill:#FFFFFF;" d="M1008.326,582.093c0,21.484-17.297,38.422-38.664,37.831c-21.399-0.592-38.77-18.538-38.77-40.081
				c0-21.544,17.371-38.479,38.77-37.828C991.028,542.665,1008.326,560.608,1008.326,582.093z"/>
			<path style="fill:#FFFFFF;" d="M1143.288,586.015c0,21.382-17.132,38.241-38.295,37.655c-21.195-0.587-38.4-18.444-38.4-39.884
				c0-21.44,17.205-38.297,38.4-37.652C1126.156,546.778,1143.288,564.633,1143.288,586.015z"/>
			<path style="fill:#FFFFFF;" d="M1276.967,589.9c0,21.28-16.97,38.061-37.932,37.481C1218.042,626.8,1201,609.03,1201,587.692
				c0-21.338,17.041-38.117,38.035-37.478C1259.997,550.852,1276.967,568.619,1276.967,589.9z"/>
			<g>
				<polygon style="opacity:0.74;fill:#FFFFFF;" points="1970.734,912.499 935.3,893.887 935.3,954.768 1970.734,971.153 				"/>
				<polygon style="opacity:0.74;fill:#FFFFFF;" points="2749.198,926.491 2749.198,983.472 2858.745,985.205 2858.745,928.46 				
					"/>
			</g>
			<g>
				<polygon style="fill:#FFFFFF;" points="1154.204,1103.689 935.3,1101.358 935.3,1038.578 1154.204,1041.395 				"/>
				<polygon style="fill:#FFFFFF;" points="2323.649,1116.141 1293.953,1105.177 1293.953,1043.192 2323.649,1056.439 				"/>
				<polygon style="fill:#FFFFFF;" points="1507.368,1212.522 1293.953,1211.058 1293.953,1149.073 1507.368,1151.01 				"/>
				<polygon style="fill:#FFFFFF;" points="2648.197,1220.348 1643.635,1213.456 1643.635,1152.246 2648.197,1161.365 				"/>
				<polygon style="fill:#FFFFFF;" points="1507.368,1317.594 1293.953,1316.938 1293.953,1254.953 1507.368,1256.082 				"/>
				<polygon style="fill:#FFFFFF;" points="2648.197,1321.1 1643.635,1318.012 1643.635,1256.803 2648.197,1262.118 				"/>
				<polygon style="fill:#FFFFFF;" points="1154.204,1422.918 935.3,1423.075 935.3,1360.295 1154.204,1360.623 				"/>
				<polygon style="fill:#FFFFFF;" points="2323.649,1422.084 1293.953,1422.819 1293.953,1360.833 2323.649,1362.381 				"/>
				<polygon style="fill:#FFFFFF;" points="1507.368,1527.738 1293.953,1528.699 1293.953,1466.714 1507.368,1466.227 				"/>
				<polygon style="fill:#FFFFFF;" points="2648.197,1522.603 1643.635,1527.125 1643.635,1465.916 2648.197,1463.62 				"/>
				<polygon style="fill:#FFFFFF;" points="1507.368,1632.81 1293.953,1634.579 1293.953,1572.594 1507.368,1571.298 				"/>
				<polygon style="fill:#FFFFFF;" points="2648.197,1623.355 1643.635,1631.681 1643.635,1570.471 2648.197,1564.372 				"/>
				<polygon style="fill:#FFFFFF;" points="1507.368,1737.882 1293.953,1740.46 1293.953,1678.474 1507.368,1676.371 				"/>
				<polygon style="fill:#FFFFFF;" points="2648.197,1724.106 1643.635,1736.237 1643.635,1675.027 2648.197,1665.124 				"/>
				<polygon style="fill:#FFFFFF;" points="1855,1837.441 1646.921,1840.741 1646.921,1779.539 1855,1776.699 				"/>
				<polygon style="fill:#FFFFFF;" points="2804.085,1822.385 1987.882,1835.333 1987.882,1774.886 2804.085,1763.749 				"/>
				<polygon style="fill:#FFFFFF;" points="1154.204,1954.966 935.3,1959.267 935.3,1896.488 1154.204,1892.672 				"/>
				<polygon style="fill:#FFFFFF;" points="2323.649,1931.987 1293.953,1952.22 1293.953,1890.235 2323.649,1872.285 				"/>
				<polygon style="fill:#FFFFFF;" points="1507.368,2053.099 1293.953,2058.101 1293.953,1996.116 1507.368,1991.587 				"/>
				<polygon style="fill:#FFFFFF;" points="2648.197,2026.361 1643.635,2049.905 1643.635,1988.695 2648.197,1967.379 				"/>
				<polygon style="fill:#FFFFFF;" points="1507.368,2158.171 1293.953,2163.981 1293.953,2101.996 1507.368,2096.659 				"/>
				<polygon style="fill:#FFFFFF;" points="2648.197,2127.113 1643.635,2154.461 1643.635,2093.252 2648.197,2068.131 				"/>
				<polygon style="fill:#FFFFFF;" points="1154.204,2274.196 935.3,2280.984 935.3,2218.204 1154.204,2211.9 				"/>
				<polygon style="fill:#FFFFFF;" points="2323.649,2237.929 1293.953,2269.862 1293.953,2207.877 2323.649,2178.227 				"/>
				<polygon style="fill:#FFFFFF;" points="1507.368,2368.316 1293.953,2375.742 1293.953,2313.757 1507.368,2306.804 				"/>
				<polygon style="fill:#FFFFFF;" points="2648.197,2328.616 1643.635,2363.573 1643.635,2302.364 2648.197,2269.635 				"/>
			</g>
			<g style="opacity:0.5;">
				<path style="fill:#FFFFFF;" d="M2113.886,1270.622c-228.964-333.167-625.273-227.164-875.979-595.277
					c-45.214-66.387-75.893-133.938-96.935-196.238L915.548,471.7c-65.737-2.16-119.251,49.696-119.251,115.834v1910.632
					c0,66.137,53.514,117.467,119.25,114.66l1888.538-80.641c-43.263-62.396-420.075-293.511-517.415-648.357
					C2197.65,1559.315,2252.027,1471.631,2113.886,1270.622z"/>
			</g>
		</g>
		<g>
			<g>
				<ellipse style="fill:#FFFFFF;" cx="1316.093" cy="2802.473" rx="260.308" ry="106.238"/>
				
					<linearGradient id="SVGID_00000079444418222601144760000013795759380897130383_" gradientUnits="userSpaceOnUse" x1="1155.0344" y1="2541.875" x2="1417.8884" y2="2943.8872">
					<stop  offset="0.0036" style="stop-color:#26264F"/>
					<stop  offset="1" style="stop-color:#444B8C"/>
				</linearGradient>
				<path style="fill:url(#SVGID_00000079444418222601144760000013795759380897130383_);" d="M1055.785,2790.016
					c0,55.386,116.543,100.285,260.308,100.285c143.764,0,260.308-44.899,260.308-100.285c0-55.386-116.544-146.011-260.308-146.011
					C1172.328,2644.005,1055.785,2734.63,1055.785,2790.016z"/>
				<path style="opacity:0.3;fill:#EBEFF2;" d="M1055.785,2790.015c0-55.386,116.543-146.009,260.308-146.009
					c66.38,0,126.922,19.339,172.903,45.589c3.219,6.743,4.719,13.447,4.11,19.812c-2.986,31.163-53.81,50.321-82.983,56.639
					c-73.465,15.913-109.342-28.018-169.917-26.343c-37.449,1.034-89.345,19.848-150.899,99.526
					C1068,2824.687,1055.785,2807.906,1055.785,2790.015z"/>
				
					<linearGradient id="SVGID_00000057826227109216623000000010049186036856273845_" gradientUnits="userSpaceOnUse" x1="1287.1512" y1="2580.4265" x2="1345.0337" y2="2580.4265">
					<stop  offset="0.0036" style="stop-color:#26264F"/>
					<stop  offset="1" style="stop-color:#444B8C"/>
				</linearGradient>
				<path style="fill:url(#SVGID_00000057826227109216623000000010049186036856273845_);" d="M1301.835,2713.412
					c10.399,2.59,20.103,2.488,29.235,0.168c8.28-2.103,13.964-9.766,13.964-18.31v-249.754h-57.882v249.406
					C1287.151,2703.73,1293.288,2711.285,1301.835,2713.412z"/>
				<g>
					
						<linearGradient id="SVGID_00000128458238294048650430000017216077494303701171_" gradientUnits="userSpaceOnUse" x1="-605.5888" y1="2556.2944" x2="-796.5338" y2="2307.4871" gradientTransform="matrix(-1 0 0 1 230.2854 0)">
						<stop  offset="0" style="stop-color:#311944"/>
						<stop  offset="1" style="stop-color:#A03976"/>
					</linearGradient>
					<path style="fill:url(#SVGID_00000128458238294048650430000017216077494303701171_);" d="M1621.939,2372.539l-88.426-55.898
						c-3.678-20.884-4.85-757.407-174.069-826.004c-68.814-27.897-248.62,5.818-289.26,7.632c-81.129,3.626-139,6.211-166.833,44.91
						c-35.74,49.694,89.441,582.429,77.028,724.576c-5.06,57.966-17.932,83.708-1.9,122.109c19.206,46,63.746,71.499,98.377,85.851
						c41.396,24.039,113.476,58.295,208.677,66.638c160.356,14.052,280.071-54.735,321.239-81.055
						c18.308-5.772,32.061-20.993,35.953-39.79C1646.673,2402.451,1638.392,2382.939,1621.939,2372.539z"/>
					
						<linearGradient id="SVGID_00000015336962656217867850000013481513613897535139_" gradientUnits="userSpaceOnUse" x1="-1033.0872" y1="2128.311" x2="-765.0095" y2="1417.694" gradientTransform="matrix(-1 0 0 1 230.2854 0)">
						<stop  offset="0" style="stop-color:#311944"/>
						<stop  offset="1" style="stop-color:#A03976"/>
					</linearGradient>
					<path style="fill:url(#SVGID_00000015336962656217867850000013481513613897535139_);" d="M1052.354,1509.949
						c-60.005,1.778-97.293,1.079-117.917,27.871c-21.647,28.123,65.468,539.762,69.525,639.891
						c3.699,91.281-12.398,127.375,17.102,177.962c0,0,14.99,25.706,38.653,45.014c83.625,68.234,299.376,67.408,390.182-75.046
						c72.446-113.648-22.998-768.837-108.117-824.268C1300.083,1474.217,1290.51,1502.895,1052.354,1509.949z"/>
					
						<linearGradient id="SVGID_00000036952800371183381360000011314533999157718181_" gradientUnits="userSpaceOnUse" x1="-1116.662" y1="2346.8936" x2="-1118.7429" y2="2523.7869" gradientTransform="matrix(-1 0 0 1 230.2854 0)">
						<stop  offset="0" style="stop-color:#311944"/>
						<stop  offset="1" style="stop-color:#A03976"/>
					</linearGradient>
					<path style="fill:url(#SVGID_00000036952800371183381360000011314533999157718181_);" d="M1628.371,2322.34l-88.425-55.9
						c0,0-236.854-77.87-456.001,31.925c-24.54,12.296-39.81,37.682-39.81,65.13c0,21.06,12.651,40.061,32.081,48.186
						c38.229,26.101,112.865,69.195,215.749,80.473c163.564,17.93,285.262-56.969,321.239-81.054
						c18.308-5.773,32.062-20.994,35.954-39.791C1653.105,2352.25,1644.824,2332.739,1628.371,2322.34z"/>
				</g>
				<g>
					<g>
						
							<linearGradient id="SVGID_00000089575755169922635120000016010740417328163722_" gradientUnits="userSpaceOnUse" x1="-1814.4611" y1="3016.3545" x2="-1663.5598" y2="3016.3545" gradientTransform="matrix(-1 0 0 1 230.2854 0)">
							<stop  offset="0" style="stop-color:#311944"/>
							<stop  offset="1" style="stop-color:#6B3976"/>
						</linearGradient>
						<path style="fill:url(#SVGID_00000089575755169922635120000016010740417328163722_);" d="M2013.815,3016.31l-75.501-45.367
							h-34.074c0,0-11.608,43.207-10.291,45.367c15.181,24.877,85.867,43.803,129.976,45.367c7.324,0.26,17.542,0.298,20.182-5.009
							C2048.581,3047.679,2028.603,3028.822,2013.815,3016.31z"/>
						
							<linearGradient id="SVGID_00000018936717586486962510000004146464147565588144_" gradientUnits="userSpaceOnUse" x1="-1710.4871" y1="3007.782" x2="-1585.5962" y2="2633.1082" gradientTransform="matrix(-1 0 0 1 230.2854 0)">
							<stop  offset="0" style="stop-color:#FFC444"/>
							<stop  offset="0.9964" style="stop-color:#F36F56"/>
						</linearGradient>
						<path style="fill:url(#SVGID_00000018936717586486962510000004146464147565588144_);" d="M1936.979,2921.438
							c-0.125,26.433,1.003,45.08,7.621,53.282c4.657,5.773-40.115,18.765-40.36-3.777c-0.161-14.838-2.493-40.287-4.865-47.761
							C1911.909,2922.601,1924.444,2922.02,1936.979,2921.438z"/>
					</g>
					<g>
						
							<linearGradient id="SVGID_00000038390285877562390230000010132231852620868792_" gradientUnits="userSpaceOnUse" x1="-1533.6587" y1="3080.1345" x2="-1382.7571" y2="3080.1345" gradientTransform="matrix(-1 0 0 1 230.2854 0)">
							<stop  offset="0" style="stop-color:#311944"/>
							<stop  offset="1" style="stop-color:#6B3976"/>
						</linearGradient>
						<path style="fill:url(#SVGID_00000038390285877562390230000010132231852620868792_);" d="M1733.013,3080.09l-75.502-45.367
							h-34.073c0,0-11.609,43.207-10.291,45.367c15.181,24.876,85.867,43.802,129.976,45.367c7.323,0.26,17.542,0.299,20.183-5.01
							C1767.777,3111.459,1747.8,3092.602,1733.013,3080.09z"/>
						
							<linearGradient id="SVGID_00000178887106428156878460000010479226639899701421_" gradientUnits="userSpaceOnUse" x1="-1429.6842" y1="3071.562" x2="-1304.792" y2="2696.8845" gradientTransform="matrix(-1 0 0 1 230.2854 0)">
							<stop  offset="0" style="stop-color:#FFC444"/>
							<stop  offset="0.9964" style="stop-color:#F36F56"/>
						</linearGradient>
						<path style="fill:url(#SVGID_00000178887106428156878460000010479226639899701421_);" d="M1656.176,2985.218
							c-0.125,26.432,1.005,45.08,7.621,53.281c4.657,5.775-40.114,18.766-40.359-3.776c-0.162-14.838-2.494-40.287-4.865-47.761
							C1631.107,2986.38,1643.641,2985.8,1656.176,2985.218z"/>
					</g>
					
						<linearGradient id="SVGID_00000028317200200105424860000015461146376518033538_" gradientUnits="userSpaceOnUse" x1="1309.4926" y1="2449.6238" x2="1835.9371" y2="2506.1204">
						<stop  offset="0.0036" style="stop-color:#26264F"/>
						<stop  offset="1" style="stop-color:#444B8C"/>
					</linearGradient>
					<path style="fill:url(#SVGID_00000028317200200105424860000015461146376518033538_);" d="M1940.051,2943.393
						c21.365-128.928,0.495-266.627-4.372-340.681c-7.74-117.779-11.608-176.672-45.676-226.137
						c-44.62-64.789-135.943-129.571-213.115-184.318c-6.674-4.737-20.079-14.061-36.741-28.911
						c-41.512-36.993-67.897-75.901-83.818-103.313c-174.73-51.253-335.894-30.484-407.01,63.223
						c-8.217,10.831-28.79,34.319-32.77,68.949c-8.979,78.139,67.798,172.208,153.951,191.854
						c109.492,24.972,173.015-87.457,270.024-50.05c9.669,3.731,38.241,32.487,96.155,88.247
						c42.056,40.496,63.085,60.74,69.781,68.786c61.991,74.49,98.931,189.128,103.385,277.885
						c0.789,15.744,1.475,48.726,20.46,84.051c14.535,27.042,54.413,76.206,69.071,87.348
						C1912.934,2941.347,1926.493,2942.373,1940.051,2943.393z"/>
					
						<linearGradient id="SVGID_00000049916500087721284480000010097159773140770965_" gradientUnits="userSpaceOnUse" x1="1241.2059" y1="2592.0872" x2="1611.4727" y2="2631.823">
						<stop  offset="0.0036" style="stop-color:#26264F"/>
						<stop  offset="1" style="stop-color:#444B8C"/>
					</linearGradient>
					<path style="fill:url(#SVGID_00000049916500087721284480000010097159773140770965_);" d="M1613.043,3007.05
						c0,0,37.379,17.651,65.12,0c-0.916-46.739-0.986-119.892,4.992-209.358c13.085-195.8,40.79-255.011,16.2-338.625
						c-17.747-60.341-65.425-142.552-206.117-219.413l-357.285-35.044c0,0-16.842,27.426-12.742,65.38
						c7.508,69.495,87.39,112.104,154.191,146.933c131.913,68.786,159.769,37.141,202.732,83.503
						c58.075,62.668,21.91,136.375,53.639,291.363C1552.938,2885.408,1586.626,2958.619,1613.043,3007.05z"/>
					<g>
						<g>
							
								<linearGradient id="SVGID_00000114794915575396951810000014336085973126177468_" gradientUnits="userSpaceOnUse" x1="1491.3248" y1="1909.5162" x2="1603.1263" y2="1767.9493">
								<stop  offset="0" style="stop-color:#FF9085"/>
								<stop  offset="1" style="stop-color:#FB6FBB"/>
							</linearGradient>
							<path style="fill:url(#SVGID_00000114794915575396951810000014336085973126177468_);" d="M1659.396,2096.34
								c48.923-4.237,123.022-235.846,20.293-385.419c-75.654-110.149-233.338-155.617-260.855-122.204
								c-15.965,19.385,16.852,59.289,77.68,173.803C1621.31,1997.458,1626.441,2099.194,1659.396,2096.34z"/>
							
								<linearGradient id="SVGID_00000168820632211094125040000016449109838316715931_" gradientUnits="userSpaceOnUse" x1="1586.0542" y1="2192.4856" x2="1009.1683" y2="1642.0792">
								<stop  offset="0" style="stop-color:#FF9085"/>
								<stop  offset="1" style="stop-color:#FB6FBB"/>
							</linearGradient>
							<path style="fill:url(#SVGID_00000168820632211094125040000016449109838316715931_);" d="M1115.925,1599.514
								c44.127-14.154,111.359-30.753,193.834-31.727c92.417-1.092,166.302-1.967,217.144,36.983
								c122.81,94.082-14.701,326.27,55.872,494.748c7.713,18.414,30.139,76.799,10.635,141.016
								c-3.597,11.844-11.007,22.243-23.686,39.86c-74.615,103.657-285.844,119.249-383.422,34.04
								c-51.78-45.216-98.461-35.18-99.711-88.701C1081.658,2014.435,1117.947,1802.866,1115.925,1599.514z"/>
							
								<linearGradient id="SVGID_00000134960001435532037400000015209185598389807500_" gradientUnits="userSpaceOnUse" x1="1190.4561" y1="2179.4749" x2="1440.4076" y2="1862.9779">
								<stop  offset="0" style="stop-color:#FF9085"/>
								<stop  offset="1" style="stop-color:#FB6FBB"/>
							</linearGradient>
							<path style="opacity:0.3;fill:url(#SVGID_00000134960001435532037400000015209185598389807500_);" d="M1208.979,1867.274
								c-17.767-43.726,0.643-94.509-38.993-115.857c-14.545-7.835-50.19-29.862-52.37-10.24
								c-14.427,129.892-27.359,263.921-23.182,425.804c1.379,53.458,41.875,102.18,99.115,147.22
								c66.101,52.01,179.46,65.822,276.134,44.92c-126.714-66.867-217.661-137.844-204.608-201.512
								c15.19-74.091,163.174-99.592,157.242-151.616C1416.026,1950.838,1247.758,1962.719,1208.979,1867.274z"/>
							<g>
								
									<linearGradient id="SVGID_00000102508780256940774440000014849539534710268548_" gradientUnits="userSpaceOnUse" x1="1546.5137" y1="1384.3171" x2="1558.5123" y2="1064.7123" gradientTransform="matrix(0.917 0.3988 -0.3988 0.917 399.6047 -184.8945)">
									<stop  offset="0" style="stop-color:#FFC444"/>
									<stop  offset="0.9964" style="stop-color:#F36F56"/>
								</linearGradient>
								<path style="fill:url(#SVGID_00000102508780256940774440000014849539534710268548_);" d="M1318.408,1452.688
									c0.287,31.202-3.543,55.989-7.167,72.976c-4.153,19.468-7.146,24.52-10.966,28.636
									c-5.752,6.199-14.473,11.445-63.822,23.142c-26.91,6.378-30.375,6.256-30.971,8.685
									c-2.901,11.852,70.414,51.113,145.852,40.406c46.017-6.533,87.786-30.947,85.226-43.444
									c-2.578-12.578-48.453-5.25-62.149-27.932c-9.532-15.789,1.153-38.473,13.777-57.288
									C1375.961,1477.134,1330.67,1473.466,1318.408,1452.688z"/>
								<g>
									
										<linearGradient id="SVGID_00000085967838765873262630000014350406874193976712_" gradientUnits="userSpaceOnUse" x1="867.1508" y1="1441.1713" x2="785.1683" y2="1232.9506" gradientTransform="matrix(-0.9687 -0.2485 -0.2485 0.9687 2456.1904 427.3052)">
										<stop  offset="0" style="stop-color:#311944"/>
										<stop  offset="1" style="stop-color:#6B3976"/>
									</linearGradient>
									<path style="fill:url(#SVGID_00000085967838765873262630000014350406874193976712_);" d="M1415.014,1491.412
										c14.109-10.339,21.083-32.402,13.01-49.2c-6.95-14.46-22.822-19.934-32.33-23.217c-27.583-9.518-66.626-6.917-85.99,14.144
										c-11.484,12.492-3.847,45.631-2.846,51.501c1.134,6.641,5.709,9.867,9.19,15.481c4.821,7.784,12.323,20.117,24.446,40.64
										c2.718-4.633,6.455-10.283,11.51-16.18c1.945-2.268,9.677-11.096,19.432-17.656
										C1390.965,1493.786,1401.63,1501.22,1415.014,1491.412z"/>
									
										<linearGradient id="SVGID_00000086685839038472597150000008371041768934269347_" gradientUnits="userSpaceOnUse" x1="633.3066" y1="1281.3378" x2="629.6389" y2="1576.8475" gradientTransform="matrix(0.982 0.1887 -0.1887 0.982 983.7829 102.0635)">
										<stop  offset="0" style="stop-color:#FFC444"/>
										<stop  offset="0.9964" style="stop-color:#F36F56"/>
									</linearGradient>
									<path style="fill:url(#SVGID_00000086685839038472597150000008371041768934269347_);" d="M1320.405,1521.266
										c0,0,10.739,32.288,48.658,38.474c33.883,5.526,58.184-61.569,41.064-80.869c-5.717-6.442-19.356-11.685-31.761-11.362
										c-7.332,0.191-10.387,2.255-22.378,2.354c-11.071,0.094-13.699-1.621-17.518,0.069c-4.776,2.116-9.752,8.834-8.915,30.297
										c-4.697-7.332-11.708-11.33-17.802-10.225c-0.974,0.177-3.676,1.079-5.587,2.944
										C1299.254,1499.697,1304.233,1511.447,1320.405,1521.266z"/>
									
										<linearGradient id="SVGID_00000142860148822032938460000008653375806607917729_" gradientUnits="userSpaceOnUse" x1="842.1085" y1="1446.9395" x2="763.0708" y2="1246.1981" gradientTransform="matrix(-0.9687 -0.2485 -0.2485 0.9687 2456.1904 427.3052)">
										<stop  offset="0" style="stop-color:#311944"/>
										<stop  offset="1" style="stop-color:#6B3976"/>
									</linearGradient>
									<path style="fill:url(#SVGID_00000142860148822032938460000008653375806607917729_);" d="M1338.126,1465.503
										c1.299,1.462-5.193,5.822-7.776,13.497c-5.019,14.9,6.538,36.77,23.145,42.161c9.812,3.184,14.159-1.728,31.247,0.433
										c10.571,1.336,18.791,4.471,23.869,6.764c0.517,17.671-9.078,33.009-23.322,37.921
										c-15.349,5.293-30.552-3.438-36.912-7.092c-4.255-2.444-17.908-10.251-22.144-24.498
										c-4.415-14.85,5.802-20.887-1.011-31.796c-3.437-5.505-9.068-8.829-12.633-18.788c-0.968-2.707-1.469-5.019-1.739-6.56
										C1321.86,1471.173,1336.245,1463.385,1338.126,1465.503z"/>
									
										<linearGradient id="SVGID_00000055666915219406552650000003838561210975321271_" gradientUnits="userSpaceOnUse" x1="761.6334" y1="1323.0854" x2="766.0501" y2="1362.4596" gradientTransform="matrix(-0.9687 -0.2485 -0.2485 0.9687 2456.1904 427.3052)">
										<stop  offset="0" style="stop-color:#FFC444"/>
										<stop  offset="1" style="stop-color:#F36F56"/>
									</linearGradient>
									<path style="fill:url(#SVGID_00000055666915219406552650000003838561210975321271_);" d="M1394.783,1531.736
										c0,0-8.174,1.806-20.43-1.645c-0.597-0.169-1.311-0.158-1.468,0.111c-0.593,1.014,6.01,7.65,13.899,7.424
										c5.6-0.162,10.945-3.756,10.571-5.063C1397.195,1532.015,1395.997,1531.809,1394.783,1531.736z"/>
								</g>
							</g>
						</g>
					</g>
				</g>
			</g>
			<g>
				<path style="fill:#B7C0CE;" d="M2083.978,2943.068c-0.102,0-0.203-0.003-0.307-0.012c-2.055-0.158-3.641-1.872-3.641-3.934
					v-854.51c0-2.178,1.765-3.945,3.945-3.945s3.945,1.767,3.945,3.945v803.267l121.657-785.37c0.334-2.154,2.356-3.622,4.503-3.295
					c2.153,0.334,3.629,2.35,3.295,4.503l-129.501,836.009C2087.573,2941.662,2085.905,2943.068,2083.978,2943.068z"/>
				<g>
					<polygon style="opacity:0.81;fill:#F4F7FA;" points="639.931,2192.208 2060.621,2082.808 3189.602,2170.001 1760.122,2290.307 
											"/>
					<polygon style="fill:#B7C0CE;" points="1760.122,2290.309 639.931,2192.206 639.931,2239.591 1760.122,2337.692 
						3189.602,2217.384 3189.602,2170 					"/>
				</g>
				<path style="fill:#B7C0CE;" d="M1750.455,3234.647c-1.958,0-3.639-1.448-3.906-3.416l-123.15-909.199
					c-0.294-2.159,1.22-4.147,3.379-4.439c2.143-0.292,4.146,1.221,4.439,3.38l115.297,851.207v-850.677
					c0-2.179,1.765-3.945,3.944-3.945s3.945,1.767,3.945,3.945v909.199c0,2.076-1.607,3.797-3.679,3.936
					C1750.635,3234.645,1750.544,3234.647,1750.455,3234.647z"/>
				<path style="fill:#B7C0CE;" d="M3173.982,3067.521c-1.956,0-3.637-1.446-3.906-3.411l-114.14-835.271
					c-0.295-2.159,1.216-4.149,3.376-4.444c2.154-0.289,4.149,1.217,4.443,3.375l106.285,777.793v-810.326
					c0-2.179,1.767-3.946,3.946-3.946s3.946,1.767,3.946,3.946v868.339c0,2.076-1.609,3.795-3.677,3.936
					C3174.162,3067.518,3174.071,3067.521,3173.982,3067.521z"/>
				<path style="fill:#B7C0CE;" d="M653.387,3067.521c-0.096,0-0.193-0.003-0.292-0.011c-2.06-0.15-3.658-1.867-3.658-3.935
					v-823.985c0-2.179,1.767-3.945,3.946-3.945s3.946,1.767,3.946,3.945v770.047l113.344-770.621c0.315-2.156,2.326-3.64,4.476-3.33
					c2.156,0.317,3.646,2.322,3.329,4.477L657.286,3064.15C657.001,3066.098,655.326,3067.521,653.387,3067.521z"/>
			</g>
			<g>
				
					<linearGradient id="SVGID_00000165938963520450200290000000183407009005436558_" gradientUnits="userSpaceOnUse" x1="1506.158" y1="2276.2249" x2="929.2746" y2="1725.8208">
					<stop  offset="0" style="stop-color:#FF9085"/>
					<stop  offset="1" style="stop-color:#FB6FBB"/>
				</linearGradient>
				<path style="fill:url(#SVGID_00000165938963520450200290000000183407009005436558_);" d="M1247.545,2155.115
					c9.953-11.119,19.905-22.246,29.857-33.365c-77.533-101.739-139.076-145.825-182.651-166.845
					c-29.847-14.398-28.626-23.699-29.855-27.219c-7.388-21.164,73.879-114.075,95.107-142.258
					c39.069-51.868,76.05-140.372,47.286-175.903c-29.945-36.988-125.346-9.411-175.903,15.132
					c-44.725,21.712-74.266,50.608-89.613,67.879c-47.569,53.531-139.112,197.618-80.616,327.43
					C915.498,2140.556,1082.094,2210.607,1247.545,2155.115z"/>
			</g>
			
				<linearGradient id="SVGID_00000000933175694555336030000007966407583202962574_" gradientUnits="userSpaceOnUse" x1="1735.608" y1="2254.3235" x2="1746.9565" y2="2202.6245">
				<stop  offset="0.0036" style="stop-color:#26264F"/>
				<stop  offset="1" style="stop-color:#444B8C"/>
			</linearGradient>
			<polygon style="fill:url(#SVGID_00000000933175694555336030000007966407583202962574_);" points="1466.3,2154.205 
				1466.3,2140.437 2058.932,2108.505 2058.932,2122.136 1640.147,2163.348 			"/>
			
				<linearGradient id="SVGID_00000090287906107948328820000017227107566190773635_" gradientUnits="userSpaceOnUse" x1="1352.7996" y1="2146.9617" x2="1876.0645" y2="2146.9617">
				<stop  offset="0.0036" style="stop-color:#26264F"/>
				<stop  offset="1" style="stop-color:#444B8C"/>
			</linearGradient>
			<polygon style="fill:url(#SVGID_00000090287906107948328820000017227107566190773635_);" points="1352.8,2163.12 
				1515.113,2165.185 1876.064,2134.926 1775.138,2128.738 			"/>
			<g>
				
					<linearGradient id="SVGID_00000165956219752227385220000000619246026939668402_" gradientUnits="userSpaceOnUse" x1="1958.684" y1="1933.7435" x2="1906.0778" y2="1808.4905">
					<stop  offset="0.0036" style="stop-color:#26264F"/>
					<stop  offset="1" style="stop-color:#444B8C"/>
				</linearGradient>
				<path style="fill:url(#SVGID_00000165956219752227385220000000619246026939668402_);" d="M1512.849,2103.896l147.163-460.449
					c2.321-7.265,10.6-12.52,19.975-12.693l644.357-11.828c5.492-0.101,15.022,3.911,18.364,7.378
					c3.34,3.463,7.894,4.099,6.642,8.582l-120.14,405.188c-2.002,6.752-9.177,11.971-17.517,12.735l-687.035,62.966
					L1512.849,2103.896z"/>
				
					<linearGradient id="SVGID_00000162339832661105664570000009955083356543736715_" gradientUnits="userSpaceOnUse" x1="1524.6582" y1="1871.54" x2="2354.521" y2="1871.54">
					<stop  offset="0.0036" style="stop-color:#26264F"/>
					<stop  offset="1" style="stop-color:#444B8C"/>
				</linearGradient>
				<path style="fill:url(#SVGID_00000162339832661105664570000009955083356543736715_);" d="M1524.658,2115.775l149.236-463.571
					c2.33-7.242,10.583-12.483,19.925-12.661l642.997-12.234c5.48-0.104,10.594,1.844,13.931,5.306
					c3.335,3.46,4.542,8.063,3.292,12.544l-112.342,402.432c-1.934,6.927-9.312,12.291-17.844,12.964L1524.658,2115.775z"/>
				
					<linearGradient id="SVGID_00000062893725445674238130000016054695209510536581_" gradientUnits="userSpaceOnUse" x1="1524.6582" y1="2020.9382" x2="2275.6116" y2="2020.9382">
					<stop  offset="0.0036" style="stop-color:#26264F"/>
					<stop  offset="1" style="stop-color:#444B8C"/>
				</linearGradient>
				<path style="opacity:0.3;fill:url(#SVGID_00000062893725445674238130000016054695209510536581_);" d="M1524.658,2115.775
					l699.195-55.218c8.532-0.674,15.91-6.037,17.844-12.964l33.915-121.49c-213.092,74.501-466.285,66.326-717.327,85.22
					L1524.658,2115.775z"/>
				
					<linearGradient id="SVGID_00000111187074903161032460000003035735952092602759_" gradientUnits="userSpaceOnUse" x1="1843.3906" y1="2161.9136" x2="1890.1519" y2="2182.7893">
					<stop  offset="0" style="stop-color:#444B8C"/>
					<stop  offset="0.9964" style="stop-color:#26264F"/>
				</linearGradient>
				<path style="fill:url(#SVGID_00000111187074903161032460000003035735952092602759_);" d="M1935.598,2193.329l-26.52,9.154
					c0,0-139.436-26.184-145.507-30.458c-0.965-0.68-4.31-7.165,1.925-8.237c32.909-5.657,153.044-9.824,153.044-9.824l11.002,0.615
					L1935.598,2193.329z"/>
				
					<linearGradient id="SVGID_00000052803643404508878480000002134469694885111990_" gradientUnits="userSpaceOnUse" x1="1765.3278" y1="2170.0723" x2="1937.5009" y2="2170.0723">
					<stop  offset="0.0036" style="stop-color:#26264F"/>
					<stop  offset="1" style="stop-color:#444B8C"/>
				</linearGradient>
				<path style="fill:url(#SVGID_00000052803643404508878480000002134469694885111990_);" d="M1937.501,2185.184l-26.517,9.139
					c0,0-139.419-26.256-145.489-30.535c-6.077-4.283,154.947-17.967,154.947-17.967l10.993,0.654L1937.501,2185.184z"/>
				
					<linearGradient id="SVGID_00000154401908924168515540000010520367006903711115_" gradientUnits="userSpaceOnUse" x1="1907.5321" y1="2035.256" x2="2122.4741" y2="2035.256">
					<stop  offset="0" style="stop-color:#444B8C"/>
					<stop  offset="0.9964" style="stop-color:#26264F"/>
				</linearGradient>
				<path style="fill:url(#SVGID_00000154401908924168515540000010520367006903711115_);" d="M2052.788,1864.931
					c0,0,67.671,291.106,69.671,308.147c1.845,15.718-164.499,31.136-204.34,32.499c-3.323,0.114-7.705-2.178-9.041-3.093
					c-11.026-1.27,40.567-333.361,40.567-333.361l3.798,0.144L2052.788,1864.931z"/>
				
					<linearGradient id="SVGID_00000121975658005703358180000014360392148962509712_" gradientUnits="userSpaceOnUse" x1="1916.9545" y1="2035.1953" x2="2131.7454" y2="2035.1953">
					<stop  offset="0.0036" style="stop-color:#26264F"/>
					<stop  offset="1" style="stop-color:#444B8C"/>
				</linearGradient>
				<path style="fill:url(#SVGID_00000121975658005703358180000014360392148962509712_);" d="M2052.788,1864.931
					c0,0,76.948,294.054,78.942,311.08c1.992,17.01-195.768,30.009-213.067,29.429c-11.01-1.266,34.779-336.175,34.779-336.175
					L2052.788,1864.931z"/>
			</g>
			
				<linearGradient id="SVGID_00000100363772851125552130000011860020608033465015_" gradientUnits="userSpaceOnUse" x1="1257.6935" y1="2148.3882" x2="1432.2906" y2="2148.3882">
				<stop  offset="0.0036" style="stop-color:#26264F"/>
				<stop  offset="1" style="stop-color:#444B8C"/>
			</linearGradient>
			<path style="fill:url(#SVGID_00000100363772851125552130000011860020608033465015_);" d="M1277.402,2140.437
				c0,0,49.717-22.751,78.425-20.72c28.705,2.033,69.101,28.154,76.124,43.632c7.026,15.478-97.13,13.786-97.13,13.786
				S1210.664,2172.297,1277.402,2140.437z"/>
			
				<linearGradient id="SVGID_00000034083661678185634070000012431318318010399163_" gradientUnits="userSpaceOnUse" x1="1300.6293" y1="2092.8096" x2="1334.2393" y2="2208.73">
				<stop  offset="0" style="stop-color:#FFC444"/>
				<stop  offset="0.9964" style="stop-color:#F36F56"/>
			</linearGradient>
			<path style="fill:url(#SVGID_00000034083661678185634070000012431318318010399163_);" d="M1251.633,2113.843
				c27.745-35.272,93.898-13.722,97.636-12.451c15.813,5.371,37.004,16.279,35.527,23.235c-1.432,6.737-22.749,3.227-57.915,9.17
				c-51.465,8.695-74.288,27.779-83.392,18.069C1236.524,2144.437,1242.523,2125.424,1251.633,2113.843z"/>
		</g>
		<g>
			<path style="fill:#BFC6D1;" d="M2009.191,996.049c28.344,2.387,53.417-20.558,56.002-51.249
				c2.585-30.691-18.297-57.506-46.641-59.893c-1.469-0.123-2.922-0.138-4.371-0.13c-1.351-15.852-3.823-31.378-7.38-46.47
				c1.346-0.551,2.688-1.122,4.012-1.803c25.839-13.278,37.112-46.556,25.178-74.329c-11.934-27.774-42.554-39.524-68.394-26.247
				c-1.351,0.695-2.637,1.475-3.907,2.274c-8.437-12.739-17.778-24.735-27.948-35.889c0.94-1.223,1.865-2.466,2.722-3.793
				c16.411-25.384,10.862-60.081-12.391-77.493c-23.254-17.413-55.41-10.95-71.821,14.435c-0.841,1.302-1.585,2.639-2.311,3.986
				c-13.128-6.336-26.833-11.582-41.023-15.686c0.253-1.546,0.482-3.102,0.616-4.692c2.585-30.692,8.179-65.341-20.2-67.284
				c-65.647-4.495-79.859,27.948-82.444,58.639c-0.134,1.589-0.167,3.162-0.177,4.729c-14.677,1.674-29.067,4.553-43.069,8.604
				c-0.49-1.449-1.001-2.893-1.612-4.316c-11.933-27.772-9.779-46.299-36.902-35.893c-59.148,22.693-68.603,56.205-56.67,83.978
				c0.624,1.451,1.327,2.833,2.05,4.195c-11.891,9.295-23.109,19.56-33.557,30.709c-1.118-1.001-2.256-1.985-3.472-2.896
				c-23.254-17.413-55.409-10.95-71.82,14.437c-16.411,25.386-10.863,60.08,12.391,77.492c1.191,0.893,2.419,1.681,3.654,2.449
				c-6.032,14.285-11.065,29.178-15.05,44.582c-1.426-0.252-2.862-0.48-4.33-0.604c-28.344-2.387-53.418,20.557-56.003,51.249
				c-2.585,30.691,18.298,57.506,46.642,59.893c1.468,0.124,2.922,0.139,4.37,0.129c1.352,15.852,3.823,31.379,7.381,46.47
				c-1.346,0.551-2.688,1.122-4.012,1.801c-25.839,13.279-37.112,46.557-25.179,74.33c11.934,27.774,42.555,39.523,68.394,26.245
				c1.35-0.693,2.638-1.473,3.907-2.273c8.436,12.74,17.778,24.736,27.947,35.89c-0.94,1.223-1.864,2.466-2.722,3.793
				c-16.41,25.385-10.863,60.08,12.392,77.493c23.254,17.413,73.594,9.446,90.004-15.938c0.841-1.302-16.598-1.136-15.872-2.483
				c13.127,6.336,26.833,11.582,41.023,15.687c-0.252,1.546-0.483,3.102-0.616,4.691c-2.585,30.691,18.297,57.506,46.641,59.894
				c28.344,2.387,53.417-20.558,56.002-51.249c0.134-1.59,0.167-3.163,0.177-4.73c14.677-1.673,29.067-4.552,43.069-8.603
				c0.491,1.449,1.002,2.893,1.613,4.317c11.933,27.772,42.555,39.523,68.394,26.245c25.839-13.278,37.113-46.557,25.179-74.329
				c-0.624-1.452-1.327-2.833-2.049-4.195c11.891-9.295,23.108-19.56,33.557-30.709c1.118,1.001,2.257,1.985,3.471,2.895
				c23.254,17.412,55.409,10.951,71.82-14.436c16.411-25.386,10.862-60.08-12.391-77.495c-1.191-0.891-2.419-1.678-3.653-2.446
				c6.031-14.284,11.065-29.178,15.049-44.581C2006.287,995.696,2007.722,995.926,2009.191,996.049z M1717.765,1118.735
				c-102.911-8.667-178.73-106.027-169.344-217.459c9.385-111.433,100.42-194.739,203.331-186.071
				c102.912,8.668,178.73,106.027,169.344,217.46C1911.712,1044.097,1820.677,1127.403,1717.765,1118.735z"/>
			<path style="fill:#BFC6D1;" d="M2010.812,836.505c25.839-13.279,37.112-46.557,25.179-74.33
				c-11.934-27.773-42.555-39.524-68.394-26.245c-1.351,0.694-2.637,1.475-3.907,2.273c-8.436-12.74-17.778-24.735-27.948-35.889
				c0.941-1.222,1.865-2.467,2.722-3.794c16.411-25.384,29.019-75.738,4.101-90.673c-47.292-28.346-71.902,2.232-88.313,27.616
				c-0.841,1.302-1.585,2.639-2.312,3.985c-13.127-6.335-26.832-11.581-41.024-15.685c0.253-1.546,0.483-3.102,0.617-4.691
				c1.407-16.703-4.173-32.223-14.088-43.317c-6.318,47.991-12.272,96.024-17.748,144.112
				c88.322,22.233,149.909,111.722,141.397,212.798c-7.214,85.652-62.686,154.63-134.692,178.054
				c0.166,9.363,0.407,18.748,0.32,28.122c-0.235,25.44-1.885,50.935-3.56,76.406c6.986-1.412,13.894-3.095,20.708-5.066
				c0.49,1.45,1.001,2.894,1.613,4.317c11.933,27.773,38.596,44.659,86.138,22.348c26.299-12.342,19.368-42.659,7.434-70.432
				c-0.623-1.451-1.327-2.833-2.049-4.195c11.891-9.296,23.108-19.561,33.556-30.709c1.118,1.001,2.257,1.985,3.472,2.894
				c23.254,17.413,75.422,7.637,91.833-17.749c16.411-25.386-9.15-56.766-32.404-74.181c-1.191-0.892-2.42-1.68-3.654-2.448
				c6.032-14.283,11.065-29.178,15.049-44.58c1.427,0.252,2.862,0.481,4.331,0.603c28.344,2.388,53.417-20.558,56.003-51.249
				c2.584-30.69-18.297-57.507-46.642-59.893c-1.469-0.123-2.922-0.138-4.37-0.129c-1.351-15.852-3.823-31.379-7.38-46.469
				C2008.146,837.757,2009.489,837.185,2010.812,836.505z"/>
			<path style="fill:#FFFFFF;" d="M2035.632,988.658c28.344,2.388,53.417-20.557,56.002-51.248
				c2.585-30.692-18.298-57.507-46.642-59.894c-1.468-0.124-2.921-0.139-4.37-0.129c-1.352-15.852-3.823-31.379-7.381-46.471
				c1.345-0.551,2.688-1.122,4.011-1.803c25.84-13.278,37.112-46.555,25.179-74.329c-11.934-27.773-42.554-39.524-68.394-26.246
				c-1.351,0.695-2.637,1.474-3.907,2.274c-8.437-12.739-17.779-24.736-27.948-35.89c0.94-1.222,1.865-2.466,2.723-3.793
				c16.41-25.384,10.862-60.08-12.392-77.492c-23.254-17.414-55.409-10.95-71.82,14.435c-0.84,1.302-1.585,2.64-2.311,3.986
				c-13.128-6.336-26.832-11.581-41.024-15.685c0.252-1.546,0.483-3.103,0.617-4.693c2.585-30.691-18.298-57.506-46.642-59.893
				c-28.344-2.387-53.417,20.557-56.003,51.248c-0.133,1.59-0.167,3.163-0.177,4.729c-14.677,1.673-29.067,4.553-43.068,8.604
				c-0.491-1.449-1.001-2.893-1.612-4.317c-11.934-27.772-42.554-39.523-68.394-26.245c-25.839,13.278-37.112,46.557-25.179,74.329
				c0.624,1.452,1.327,2.832,2.05,4.194c-11.892,9.296-23.109,19.561-33.557,30.71c-1.118-1-2.256-1.984-3.472-2.896
				c-23.254-17.413-55.409-10.949-71.819,14.437c-16.411,25.386-10.863,60.08,12.391,77.493c1.191,0.892,2.419,1.68,3.654,2.448
				c-6.032,14.284-11.065,29.178-15.05,44.581c-1.426-0.252-2.862-0.48-4.33-0.603c-28.344-2.388-53.417,20.557-56.003,51.248
				c-2.584,30.691,18.297,57.507,46.642,59.894c1.468,0.124,2.922,0.139,4.37,0.129c1.352,15.852,3.823,31.379,7.38,46.47
				c-1.345,0.55-2.687,1.123-4.011,1.801c-25.84,13.28-37.112,46.556-25.179,74.331c11.934,27.773,42.555,39.522,68.394,26.245
				c1.35-0.694,2.638-1.474,3.907-2.273c8.436,12.74,17.778,24.736,27.947,35.89c-0.941,1.222-1.865,2.467-2.723,3.793
				c-16.41,25.384-10.863,60.08,12.392,77.493c23.254,17.413,55.409,10.95,71.82-14.435c0.841-1.302,1.585-2.64,2.312-3.986
				c13.127,6.335,26.832,11.581,41.023,15.686c-0.252,1.546-0.482,3.102-0.617,4.693c-2.585,30.691,18.298,57.506,46.642,59.893
				c28.344,2.387,53.417-20.558,56.002-51.249c0.134-1.59,0.168-3.162,0.177-4.729c14.677-1.673,29.067-4.552,43.069-8.603
				c0.491,1.449,1.002,2.893,1.612,4.316c11.934,27.772,42.555,39.523,68.394,26.244c25.84-13.277,37.113-46.556,25.179-74.328
				c-0.624-1.453-1.327-2.833-2.049-4.196c11.891-9.295,23.108-19.56,33.556-30.709c1.118,1,2.256,1.984,3.471,2.893
				c23.254,17.414,55.409,10.951,71.82-14.435c16.411-25.387,10.863-60.08-12.391-77.495c-1.191-0.891-2.419-1.678-3.654-2.447
				c6.032-14.283,11.065-29.178,15.049-44.58C2032.728,988.307,2034.163,988.535,2035.632,988.658z M1744.207,1111.345
				c-102.911-8.667-178.729-106.027-169.344-217.46c9.385-111.432,100.42-194.739,203.331-186.072
				c102.911,8.668,178.73,106.027,169.344,217.46C1938.153,1036.706,1847.119,1120.013,1744.207,1111.345z"/>
		</g>
		<g>
			<path style="fill:#BFC6D1;" d="M2786.63,1314.933c34.665,2.919,65.33-25.143,68.491-62.678
				c3.162-37.535-22.377-70.331-57.042-73.25c-1.796-0.151-3.574-0.169-5.345-0.158c-1.653-19.387-4.675-38.376-9.027-56.833
				c1.646-0.674,3.288-1.372,4.906-2.205c31.602-16.239,45.388-56.937,30.793-90.905c-14.594-33.968-52.044-48.339-83.646-32.1
				c-1.652,0.85-3.225,1.804-4.778,2.781c-10.318-15.58-21.743-30.251-34.18-43.892c1.149-1.495,2.28-3.016,3.329-4.639
				c20.07-31.046,13.285-73.479-15.155-94.775c-28.44-21.296-67.766-13.392-87.837,17.654c-1.028,1.592-1.939,3.228-2.827,4.875
				c-16.055-7.748-32.817-14.165-50.172-19.185c0.308-1.89,0.59-3.794,0.754-5.738c3.161-37.536,10.002-79.913-24.705-82.289
				c-80.288-5.498-97.668,34.18-100.829,71.716c-0.164,1.944-0.204,3.867-0.217,5.783c-17.95,2.047-35.549,5.568-52.674,10.522
				c-0.6-1.772-1.224-3.538-1.972-5.279c-14.594-33.965-11.96-56.624-45.132-43.898c-72.338,27.754-83.902,68.739-69.308,102.705
				c0.763,1.775,1.623,3.464,2.507,5.13c-14.543,11.367-28.262,23.922-41.04,37.558c-1.368-1.224-2.759-2.427-4.246-3.541
				c-28.44-21.296-67.766-13.392-87.836,17.657c-20.07,31.047-13.285,73.478,15.155,94.774c1.457,1.092,2.959,2.056,4.469,2.995
				c-7.377,17.47-13.533,35.686-18.406,54.524c-1.744-0.307-3.5-0.587-5.296-0.738c-34.665-2.92-65.33,25.142-68.491,62.678
				c-3.161,37.535,22.378,70.331,57.043,73.25c1.796,0.152,3.574,0.17,5.345,0.158c1.654,19.387,4.676,38.376,9.028,56.833
				c-1.646,0.674-3.288,1.372-4.907,2.203c-31.601,16.241-45.388,56.94-30.794,90.907c14.595,33.968,52.045,48.336,83.646,32.097
				c1.651-0.848,3.226-1.802,4.778-2.78c10.317,15.581,21.743,30.253,34.18,43.893c-1.15,1.496-2.28,3.016-3.329,4.639
				c-20.07,31.046-13.285,73.478,15.155,94.775c28.44,21.296,90.005,11.552,110.075-19.493c1.029-1.592-20.299-1.39-19.412-3.037
				c16.054,7.749,32.817,14.165,50.172,19.184c-0.309,1.891-0.59,3.794-0.754,5.738c-3.162,37.535,22.377,70.331,57.043,73.251
				c34.665,2.919,65.33-25.143,68.492-62.678c0.163-1.944,0.204-3.868,0.216-5.784c17.95-2.046,35.55-5.568,52.674-10.522
				c0.6,1.772,1.225,3.538,1.972,5.28c14.595,33.965,52.045,48.336,83.646,32.097c31.602-16.239,45.389-56.94,30.794-90.904
				c-0.762-1.776-1.623-3.464-2.506-5.131c14.543-11.368,28.262-23.922,41.04-37.558c1.367,1.224,2.76,2.427,4.245,3.54
				c28.44,21.296,67.766,13.394,87.837-17.655c20.071-31.047,13.285-73.478-15.155-94.777c-1.456-1.089-2.958-2.053-4.468-2.992
				c7.376-17.469,13.533-35.685,18.405-54.523C2783.079,1314.501,2784.834,1314.781,2786.63,1314.933z M2430.214,1464.979
				c-125.862-10.601-218.588-129.672-207.109-265.955c11.478-136.283,122.814-238.167,248.676-227.567
				c125.863,10.601,218.589,129.672,207.11,265.956C2667.412,1373.696,2556.077,1475.58,2430.214,1464.979z"/>
			<path style="fill:#BFC6D1;" d="M2788.613,1119.808c31.602-16.24,45.388-56.939,30.794-90.906
				c-14.595-33.967-52.045-48.338-83.646-32.098c-1.652,0.849-3.225,1.803-4.778,2.78c-10.317-15.581-21.743-30.251-34.18-43.892
				c1.15-1.494,2.28-3.017,3.329-4.64c20.07-31.046,35.49-92.629,5.016-110.895c-57.839-34.668-87.937,2.73-108.007,33.775
				c-1.028,1.592-1.939,3.227-2.827,4.874c-16.055-7.748-32.816-14.163-50.172-19.183c0.31-1.891,0.591-3.794,0.755-5.737
				c1.72-20.428-5.104-39.409-17.23-52.977c-7.727,58.693-15.009,117.438-21.705,176.25
				c108.018,27.191,183.34,136.637,172.929,260.253c-8.822,104.753-76.666,189.114-164.73,217.762
				c0.203,11.451,0.498,22.928,0.391,34.393c-0.287,31.114-2.305,62.293-4.354,93.445c8.544-1.727,16.993-3.785,25.327-6.196
				c0.6,1.773,1.225,3.539,1.972,5.28c14.595,33.967,47.203,54.618,105.347,27.332c32.165-15.095,23.688-52.173,9.092-86.139
				c-0.762-1.775-1.623-3.464-2.506-5.13c14.543-11.369,28.261-23.923,41.039-37.558c1.368,1.224,2.761,2.427,4.246,3.54
				c28.441,21.297,92.243,9.341,112.313-21.707c20.071-31.048-11.191-69.426-39.631-90.724c-1.457-1.091-2.959-2.055-4.469-2.994
				c7.377-17.468,13.533-35.685,18.406-54.521c1.745,0.308,3.5,0.588,5.296,0.738c34.665,2.921,65.33-25.143,68.492-62.678
				c3.161-37.534-22.378-70.331-57.043-73.249c-1.796-0.152-3.574-0.17-5.345-0.158c-1.653-19.387-4.676-38.377-9.027-56.833
				C2785.352,1121.339,2786.994,1120.64,2788.613,1119.808z"/>
			<path style="fill:#FFFFFF;" d="M2818.968,1305.893c34.665,2.92,65.33-25.142,68.492-62.677
				c3.161-37.536-22.378-70.331-57.044-73.25c-1.795-0.152-3.573-0.17-5.344-0.158c-1.654-19.388-4.676-38.377-9.027-56.834
				c1.645-0.674,3.288-1.372,4.906-2.205c31.602-16.239,45.389-56.937,30.794-90.905c-14.594-33.967-52.044-48.339-83.646-32.099
				c-1.652,0.85-3.225,1.804-4.778,2.781c-10.318-15.58-21.744-30.252-34.18-43.893c1.15-1.494,2.281-3.017,3.329-4.639
				c20.071-31.045,13.286-73.478-15.155-94.774c-28.44-21.297-67.766-13.391-87.836,17.654c-1.028,1.592-1.939,3.228-2.827,4.875
				c-16.055-7.749-32.817-14.164-50.172-19.184c0.309-1.891,0.591-3.794,0.755-5.739c3.162-37.535-22.378-70.331-57.043-73.25
				c-34.666-2.919-65.329,25.141-68.491,62.677c-0.164,1.945-0.204,3.868-0.217,5.784c-17.95,2.046-35.549,5.568-52.673,10.522
				c-0.601-1.772-1.225-3.538-1.972-5.279c-14.595-33.966-52.044-48.337-83.646-32.098c-31.601,16.239-45.388,56.94-30.794,90.905
				c0.763,1.776,1.623,3.464,2.507,5.13c-14.543,11.369-28.262,23.923-41.04,37.558c-1.368-1.223-2.759-2.426-4.246-3.542
				c-28.44-21.296-67.766-13.391-87.836,17.657c-20.071,31.048-13.285,73.478,15.154,94.775c1.457,1.091,2.959,2.055,4.469,2.994
				c-7.377,17.469-13.533,35.685-18.406,54.523c-1.744-0.307-3.5-0.587-5.296-0.738c-34.666-2.92-65.33,25.141-68.491,62.677
				c-3.161,37.536,22.377,70.331,57.043,73.251c1.796,0.152,3.573,0.17,5.344,0.158c1.654,19.388,4.676,38.377,9.027,56.833
				c-1.645,0.673-3.287,1.373-4.906,2.203c-31.602,16.241-45.388,56.939-30.794,90.906c14.595,33.967,52.045,48.336,83.646,32.098
				c1.651-0.849,3.225-1.802,4.778-2.78c10.317,15.58,21.742,30.252,34.179,43.893c-1.15,1.494-2.28,3.016-3.329,4.639
				c-20.07,31.045-13.285,73.478,15.155,94.774c28.441,21.296,67.766,13.392,87.836-17.654c1.029-1.592,1.939-3.228,2.827-4.875
				c16.054,7.748,32.817,14.164,50.171,19.184c-0.308,1.891-0.59,3.794-0.754,5.738c-3.161,37.535,22.378,70.331,57.043,73.25
				c34.665,2.919,65.33-25.142,68.491-62.677c0.165-1.944,0.205-3.868,0.217-5.784c17.95-2.046,35.549-5.567,52.674-10.521
				c0.6,1.772,1.225,3.538,1.971,5.279c14.596,33.966,52.045,48.336,83.646,32.097c31.602-16.239,45.389-56.939,30.794-90.904
				c-0.763-1.776-1.623-3.464-2.506-5.132c14.543-11.368,28.261-23.922,41.04-37.557c1.367,1.223,2.759,2.427,4.246,3.539
				c28.44,21.296,67.766,13.393,87.836-17.654c20.071-31.048,13.286-73.479-15.154-94.777c-1.457-1.089-2.958-2.053-4.469-2.992
				c7.377-17.469,13.532-35.685,18.406-54.523C2815.417,1305.463,2817.172,1305.742,2818.968,1305.893z M2462.552,1455.94
				c-125.861-10.6-218.587-129.672-207.109-265.955s122.815-238.168,248.676-227.567s218.588,129.672,207.109,265.955
				C2699.75,1364.656,2588.415,1466.541,2462.552,1455.94z"/>
		</g>
	</g>
</g>
</svg>
